<svg xmlns="http://www.w3.org/2000/svg" viewBox="0 0 575.82 816.28"><defs><style>.cls-1{fill:#d2572a;}</style></defs><title>sdf_1</title><g id="Слой_2" data-name="Слой 2"><g id="Layer_1" data-name="Layer 1"><polygon class="cls-1" points="5.61 5.61 0 5.61 2.75 0 5.61 5.61"/><polygon class="cls-1" points="5.61 27.54 0 27.54 2.75 21.93 5.61 27.54"/><polygon class="cls-1" points="27.53 5.61 21.92 5.61 24.67 0 27.53 5.61"/><polygon class="cls-1" points="27.53 27.54 21.92 27.54 24.67 21.93 27.53 27.54"/><polygon class="cls-1" points="49.46 27.54 43.85 27.54 46.6 21.93 49.46 27.54"/><polygon class="cls-1" points="71.39 27.54 65.78 27.54 68.53 21.93 71.39 27.54"/><polygon class="cls-1" points="93.32 27.54 87.71 27.54 90.47 21.93 93.32 27.54"/><polygon class="cls-1" points="115.25 27.54 109.64 27.54 112.4 21.93 115.25 27.54"/><polygon class="cls-1" points="137.19 27.54 131.58 27.54 134.33 21.93 137.19 27.54"/><polygon class="cls-1" points="159.12 27.54 153.51 27.54 156.26 21.93 159.12 27.54"/><polygon class="cls-1" points="181.05 27.54 175.44 27.54 178.19 21.93 181.05 27.54"/><polygon class="cls-1" points="202.98 27.54 197.37 27.54 200.13 21.93 202.98 27.54"/><polygon class="cls-1" points="224.91 27.54 219.3 27.54 222.06 21.93 224.91 27.54"/><polygon class="cls-1" points="246.84 27.54 241.24 27.54 243.99 21.93 246.84 27.54"/><polygon class="cls-1" points="268.78 27.54 263.17 27.54 265.92 21.93 268.78 27.54"/><polygon class="cls-1" points="290.71 27.54 285.1 27.54 287.85 21.93 290.71 27.54"/><polygon class="cls-1" points="312.64 27.54 307.03 27.54 309.78 21.93 312.64 27.54"/><polygon class="cls-1" points="334.57 27.54 328.96 27.54 331.72 21.93 334.57 27.54"/><polygon class="cls-1" points="356.5 27.54 350.89 27.54 353.65 21.93 356.5 27.54"/><polygon class="cls-1" points="378.44 27.54 372.83 27.54 375.58 21.93 378.44 27.54"/><polygon class="cls-1" points="400.37 27.54 394.76 27.54 397.51 21.93 400.37 27.54"/><polygon class="cls-1" points="422.3 27.54 416.69 27.54 419.44 21.93 422.3 27.54"/><polygon class="cls-1" points="444.23 27.54 438.62 27.54 441.38 21.93 444.23 27.54"/><polygon class="cls-1" points="466.16 27.54 460.55 27.54 463.31 21.93 466.16 27.54"/><polygon class="cls-1" points="488.09 27.54 482.49 27.54 485.24 21.93 488.09 27.54"/><polygon class="cls-1" points="510.03 27.54 504.42 27.54 507.17 21.93 510.03 27.54"/><polygon class="cls-1" points="531.96 27.54 526.35 27.54 529.1 21.93 531.96 27.54"/><polygon class="cls-1" points="553.89 27.54 548.28 27.54 551.03 21.93 553.89 27.54"/><polygon class="cls-1" points="575.82 27.54 570.21 27.54 572.97 21.93 575.82 27.54"/><polygon class="cls-1" points="49.46 5.61 43.85 5.61 46.6 0 49.46 5.61"/><polygon class="cls-1" points="71.39 5.61 65.78 5.61 68.53 0 71.39 5.61"/><polygon class="cls-1" points="93.32 5.61 87.71 5.61 90.47 0 93.32 5.61"/><polygon class="cls-1" points="115.25 5.61 109.64 5.61 112.4 0 115.25 5.61"/><polygon class="cls-1" points="137.19 5.61 131.58 5.61 134.33 0 137.19 5.61"/><polygon class="cls-1" points="159.12 5.61 153.51 5.61 156.26 0 159.12 5.61"/><polygon class="cls-1" points="181.05 5.61 175.44 5.61 178.19 0 181.05 5.61"/><polygon class="cls-1" points="202.98 5.61 197.37 5.61 200.13 0 202.98 5.61"/><polygon class="cls-1" points="224.91 5.61 219.3 5.61 222.06 0 224.91 5.61"/><polygon class="cls-1" points="246.84 5.61 241.24 5.61 243.99 0 246.84 5.61"/><polygon class="cls-1" points="268.78 5.61 263.17 5.61 265.92 0 268.78 5.61"/><polygon class="cls-1" points="290.71 5.61 285.1 5.61 287.85 0 290.71 5.61"/><polygon class="cls-1" points="312.64 5.61 307.03 5.61 309.78 0 312.64 5.61"/><polygon class="cls-1" points="334.57 5.61 328.96 5.61 331.72 0 334.57 5.61"/><polygon class="cls-1" points="356.5 5.61 350.89 5.61 353.65 0 356.5 5.61"/><polygon class="cls-1" points="378.44 5.61 372.83 5.61 375.58 0 378.44 5.61"/><polygon class="cls-1" points="400.37 5.61 394.76 5.61 397.51 0 400.37 5.61"/><polygon class="cls-1" points="422.3 5.61 416.69 5.61 419.44 0 422.3 5.61"/><polygon class="cls-1" points="444.23 5.61 438.62 5.61 441.38 0 444.23 5.61"/><polygon class="cls-1" points="466.16 5.61 460.55 5.61 463.31 0 466.16 5.61"/><polygon class="cls-1" points="488.09 5.61 482.49 5.61 485.24 0 488.09 5.61"/><polygon class="cls-1" points="510.03 5.61 504.42 5.61 507.17 0 510.03 5.61"/><polygon class="cls-1" points="531.96 5.61 526.35 5.61 529.1 0 531.96 5.61"/><polygon class="cls-1" points="553.89 5.61 548.28 5.61 551.03 0 553.89 5.61"/><polygon class="cls-1" points="575.82 5.61 570.21 5.61 572.97 0 575.82 5.61"/><polygon class="cls-1" points="5.61 48.28 0 48.28 2.75 42.67 5.61 48.28"/><polygon class="cls-1" points="5.61 70.21 0 70.21 2.75 64.6 5.61 70.21"/><polygon class="cls-1" points="27.53 48.28 21.92 48.28 24.67 42.67 27.53 48.28"/><polygon class="cls-1" points="27.53 70.21 21.92 70.21 24.67 64.6 27.53 70.21"/><polygon class="cls-1" points="49.46 70.21 43.85 70.21 46.6 64.6 49.46 70.21"/><polygon class="cls-1" points="71.39 70.21 65.78 70.21 68.53 64.6 71.39 70.21"/><polygon class="cls-1" points="93.32 70.21 87.71 70.21 90.47 64.6 93.32 70.21"/><polygon class="cls-1" points="115.25 70.21 109.64 70.21 112.4 64.6 115.25 70.21"/><polygon class="cls-1" points="137.19 70.21 131.58 70.21 134.33 64.6 137.19 70.21"/><polygon class="cls-1" points="159.12 70.21 153.51 70.21 156.26 64.6 159.12 70.21"/><polygon class="cls-1" points="181.05 70.21 175.44 70.21 178.19 64.6 181.05 70.21"/><polygon class="cls-1" points="202.98 70.21 197.37 70.21 200.13 64.6 202.98 70.21"/><polygon class="cls-1" points="224.91 70.21 219.3 70.21 222.06 64.6 224.91 70.21"/><polygon class="cls-1" points="246.84 70.21 241.24 70.21 243.99 64.6 246.84 70.21"/><polygon class="cls-1" points="268.78 70.21 263.17 70.21 265.92 64.6 268.78 70.21"/><polygon class="cls-1" points="290.71 70.21 285.1 70.21 287.85 64.6 290.71 70.21"/><polygon class="cls-1" points="312.64 70.21 307.03 70.21 309.78 64.6 312.64 70.21"/><polygon class="cls-1" points="334.57 70.21 328.96 70.21 331.72 64.6 334.57 70.21"/><polygon class="cls-1" points="356.5 70.21 350.89 70.21 353.65 64.6 356.5 70.21"/><polygon class="cls-1" points="378.44 70.21 372.83 70.21 375.58 64.6 378.44 70.21"/><polygon class="cls-1" points="400.37 70.21 394.76 70.21 397.51 64.6 400.37 70.21"/><polygon class="cls-1" points="422.3 70.21 416.69 70.21 419.44 64.6 422.3 70.21"/><polygon class="cls-1" points="444.23 70.21 438.62 70.21 441.38 64.6 444.23 70.21"/><polygon class="cls-1" points="466.16 70.21 460.55 70.21 463.31 64.6 466.16 70.21"/><polygon class="cls-1" points="488.09 70.21 482.49 70.21 485.24 64.6 488.09 70.21"/><polygon class="cls-1" points="510.03 70.21 504.42 70.21 507.17 64.6 510.03 70.21"/><polygon class="cls-1" points="531.96 70.21 526.35 70.21 529.1 64.6 531.96 70.21"/><polygon class="cls-1" points="553.89 70.21 548.28 70.21 551.03 64.6 553.89 70.21"/><polygon class="cls-1" points="575.82 70.21 570.21 70.21 572.97 64.6 575.82 70.21"/><polygon class="cls-1" points="49.46 48.28 43.85 48.28 46.6 42.67 49.46 48.28"/><polygon class="cls-1" points="71.39 48.28 65.78 48.28 68.53 42.67 71.39 48.28"/><polygon class="cls-1" points="93.32 48.28 87.71 48.28 90.47 42.67 93.32 48.28"/><polygon class="cls-1" points="115.25 48.28 109.64 48.28 112.4 42.67 115.25 48.28"/><polygon class="cls-1" points="137.19 48.28 131.58 48.28 134.33 42.67 137.19 48.28"/><polygon class="cls-1" points="159.12 48.28 153.51 48.28 156.26 42.67 159.12 48.28"/><polygon class="cls-1" points="181.05 48.28 175.44 48.28 178.19 42.67 181.05 48.28"/><polygon class="cls-1" points="202.98 48.28 197.37 48.28 200.13 42.67 202.98 48.28"/><polygon class="cls-1" points="224.91 48.28 219.3 48.28 222.06 42.67 224.91 48.28"/><polygon class="cls-1" points="246.84 48.28 241.24 48.28 243.99 42.67 246.84 48.28"/><polygon class="cls-1" points="268.78 48.28 263.17 48.28 265.92 42.67 268.78 48.28"/><polygon class="cls-1" points="290.71 48.28 285.1 48.28 287.85 42.67 290.71 48.28"/><polygon class="cls-1" points="312.64 48.28 307.03 48.28 309.78 42.67 312.64 48.28"/><polygon class="cls-1" points="334.57 48.28 328.96 48.28 331.72 42.67 334.57 48.28"/><polygon class="cls-1" points="356.5 48.28 350.89 48.28 353.65 42.67 356.5 48.28"/><polygon class="cls-1" points="378.44 48.28 372.83 48.28 375.58 42.67 378.44 48.28"/><polygon class="cls-1" points="400.37 48.28 394.76 48.28 397.51 42.67 400.37 48.28"/><polygon class="cls-1" points="422.3 48.28 416.69 48.28 419.44 42.67 422.3 48.28"/><polygon class="cls-1" points="444.23 48.28 438.62 48.28 441.38 42.67 444.23 48.28"/><polygon class="cls-1" points="466.16 48.28 460.55 48.28 463.31 42.67 466.16 48.28"/><polygon class="cls-1" points="488.09 48.28 482.49 48.28 485.24 42.67 488.09 48.28"/><polygon class="cls-1" points="510.03 48.28 504.42 48.28 507.17 42.67 510.03 48.28"/><polygon class="cls-1" points="531.96 48.28 526.35 48.28 529.1 42.67 531.96 48.28"/><polygon class="cls-1" points="553.89 48.28 548.28 48.28 551.03 42.67 553.89 48.28"/><polygon class="cls-1" points="575.82 48.28 570.21 48.28 572.97 42.67 575.82 48.28"/><polygon class="cls-1" points="5.61 90.94 0 90.94 2.75 85.33 5.61 90.94"/><polygon class="cls-1" points="5.61 112.88 0 112.88 2.75 107.27 5.61 112.88"/><polygon class="cls-1" points="27.53 90.94 21.92 90.94 24.67 85.33 27.53 90.94"/><polygon class="cls-1" points="27.53 112.88 21.92 112.88 24.67 107.27 27.53 112.88"/><polygon class="cls-1" points="49.46 112.88 43.85 112.88 46.6 107.27 49.46 112.88"/><polygon class="cls-1" points="71.39 112.88 65.78 112.88 68.53 107.27 71.39 112.88"/><polygon class="cls-1" points="93.32 112.88 87.71 112.88 90.47 107.27 93.32 112.88"/><polygon class="cls-1" points="115.25 112.88 109.64 112.88 112.4 107.27 115.25 112.88"/><polygon class="cls-1" points="137.19 112.88 131.58 112.88 134.33 107.27 137.19 112.88"/><polygon class="cls-1" points="159.12 112.88 153.51 112.88 156.26 107.27 159.12 112.88"/><polygon class="cls-1" points="181.05 112.88 175.44 112.88 178.19 107.27 181.05 112.88"/><polygon class="cls-1" points="202.98 112.88 197.37 112.88 200.13 107.27 202.98 112.88"/><polygon class="cls-1" points="224.91 112.88 219.3 112.88 222.06 107.27 224.91 112.88"/><polygon class="cls-1" points="246.84 112.88 241.24 112.88 243.99 107.27 246.84 112.88"/><polygon class="cls-1" points="268.78 112.88 263.17 112.88 265.92 107.27 268.78 112.88"/><polygon class="cls-1" points="290.71 112.88 285.1 112.88 287.85 107.27 290.71 112.88"/><polygon class="cls-1" points="312.64 112.88 307.03 112.88 309.78 107.27 312.64 112.88"/><polygon class="cls-1" points="334.57 112.88 328.96 112.88 331.72 107.27 334.57 112.88"/><polygon class="cls-1" points="356.5 112.88 350.89 112.88 353.65 107.27 356.5 112.88"/><polygon class="cls-1" points="378.44 112.88 372.83 112.88 375.58 107.27 378.44 112.88"/><polygon class="cls-1" points="400.37 112.88 394.76 112.88 397.51 107.27 400.37 112.88"/><polygon class="cls-1" points="422.3 112.88 416.69 112.88 419.44 107.27 422.3 112.88"/><polygon class="cls-1" points="444.23 112.88 438.62 112.88 441.38 107.27 444.23 112.88"/><polygon class="cls-1" points="466.16 112.88 460.55 112.88 463.31 107.27 466.16 112.88"/><polygon class="cls-1" points="488.09 112.88 482.49 112.88 485.24 107.27 488.09 112.88"/><polygon class="cls-1" points="510.03 112.88 504.42 112.88 507.17 107.27 510.03 112.88"/><polygon class="cls-1" points="531.96 112.88 526.35 112.88 529.1 107.27 531.96 112.88"/><polygon class="cls-1" points="553.89 112.88 548.28 112.88 551.03 107.27 553.89 112.88"/><polygon class="cls-1" points="575.82 112.88 570.21 112.88 572.97 107.27 575.82 112.88"/><polygon class="cls-1" points="49.46 90.94 43.85 90.94 46.6 85.33 49.46 90.94"/><polygon class="cls-1" points="71.39 90.94 65.78 90.94 68.53 85.33 71.39 90.94"/><polygon class="cls-1" points="93.32 90.94 87.71 90.94 90.47 85.33 93.32 90.94"/><polygon class="cls-1" points="115.25 90.94 109.64 90.94 112.4 85.33 115.25 90.94"/><polygon class="cls-1" points="137.19 90.94 131.58 90.94 134.33 85.33 137.19 90.94"/><polygon class="cls-1" points="159.12 90.94 153.51 90.94 156.26 85.33 159.12 90.94"/><polygon class="cls-1" points="181.05 90.94 175.44 90.94 178.19 85.33 181.05 90.94"/><polygon class="cls-1" points="202.98 90.94 197.37 90.94 200.13 85.33 202.98 90.94"/><polygon class="cls-1" points="224.91 90.94 219.3 90.94 222.06 85.33 224.91 90.94"/><polygon class="cls-1" points="246.84 90.94 241.24 90.94 243.99 85.33 246.84 90.94"/><polygon class="cls-1" points="268.78 90.94 263.17 90.94 265.92 85.33 268.78 90.94"/><polygon class="cls-1" points="290.71 90.94 285.1 90.94 287.85 85.33 290.71 90.94"/><polygon class="cls-1" points="312.64 90.94 307.03 90.94 309.78 85.33 312.64 90.94"/><polygon class="cls-1" points="334.57 90.94 328.96 90.94 331.72 85.33 334.57 90.94"/><polygon class="cls-1" points="356.5 90.94 350.89 90.94 353.65 85.33 356.5 90.94"/><polygon class="cls-1" points="378.44 90.94 372.83 90.94 375.58 85.33 378.44 90.94"/><polygon class="cls-1" points="400.37 90.94 394.76 90.94 397.51 85.33 400.37 90.94"/><polygon class="cls-1" points="422.3 90.94 416.69 90.94 419.44 85.33 422.3 90.94"/><polygon class="cls-1" points="444.23 90.94 438.62 90.94 441.38 85.33 444.23 90.94"/><polygon class="cls-1" points="466.16 90.94 460.55 90.94 463.31 85.33 466.16 90.94"/><polygon class="cls-1" points="488.09 90.94 482.49 90.94 485.24 85.33 488.09 90.94"/><polygon class="cls-1" points="510.03 90.94 504.42 90.94 507.17 85.33 510.03 90.94"/><polygon class="cls-1" points="531.96 90.94 526.35 90.94 529.1 85.33 531.96 90.94"/><polygon class="cls-1" points="553.89 90.94 548.28 90.94 551.03 85.33 553.89 90.94"/><polygon class="cls-1" points="575.82 90.94 570.21 90.94 572.97 85.33 575.82 90.94"/><polygon class="cls-1" points="5.61 133.61 0 133.61 2.75 128 5.61 133.61"/><polygon class="cls-1" points="5.61 155.54 0 155.54 2.75 149.93 5.61 155.54"/><polygon class="cls-1" points="27.53 133.61 21.92 133.61 24.67 128 27.53 133.61"/><polygon class="cls-1" points="27.53 155.54 21.92 155.54 24.67 149.93 27.53 155.54"/><polygon class="cls-1" points="49.46 155.54 43.85 155.54 46.6 149.93 49.46 155.54"/><polygon class="cls-1" points="71.39 155.54 65.78 155.54 68.53 149.93 71.39 155.54"/><polygon class="cls-1" points="93.32 155.54 87.71 155.54 90.47 149.93 93.32 155.54"/><polygon class="cls-1" points="115.25 155.54 109.64 155.54 112.4 149.93 115.25 155.54"/><polygon class="cls-1" points="137.19 155.54 131.58 155.54 134.33 149.93 137.19 155.54"/><polygon class="cls-1" points="159.12 155.54 153.51 155.54 156.26 149.93 159.12 155.54"/><polygon class="cls-1" points="181.05 155.54 175.44 155.54 178.19 149.93 181.05 155.54"/><polygon class="cls-1" points="202.98 155.54 197.37 155.54 200.13 149.93 202.98 155.54"/><polygon class="cls-1" points="224.91 155.54 219.3 155.54 222.06 149.93 224.91 155.54"/><polygon class="cls-1" points="246.84 155.54 241.24 155.54 243.99 149.93 246.84 155.54"/><polygon class="cls-1" points="268.78 155.54 263.17 155.54 265.92 149.93 268.78 155.54"/><polygon class="cls-1" points="290.71 155.54 285.1 155.54 287.85 149.93 290.71 155.54"/><polygon class="cls-1" points="312.64 155.54 307.03 155.54 309.78 149.93 312.64 155.54"/><polygon class="cls-1" points="334.57 155.54 328.96 155.54 331.72 149.93 334.57 155.54"/><polygon class="cls-1" points="356.5 155.54 350.89 155.54 353.65 149.93 356.5 155.54"/><polygon class="cls-1" points="378.44 155.54 372.83 155.54 375.58 149.93 378.44 155.54"/><polygon class="cls-1" points="400.37 155.54 394.76 155.54 397.51 149.93 400.37 155.54"/><polygon class="cls-1" points="422.3 155.54 416.69 155.54 419.44 149.93 422.3 155.54"/><polygon class="cls-1" points="444.23 155.54 438.62 155.54 441.38 149.93 444.23 155.54"/><polygon class="cls-1" points="466.16 155.54 460.55 155.54 463.31 149.93 466.16 155.54"/><polygon class="cls-1" points="488.09 155.54 482.49 155.54 485.24 149.93 488.09 155.54"/><polygon class="cls-1" points="510.03 155.54 504.42 155.54 507.17 149.93 510.03 155.54"/><polygon class="cls-1" points="531.96 155.54 526.35 155.54 529.1 149.93 531.96 155.54"/><polygon class="cls-1" points="553.89 155.54 548.28 155.54 551.03 149.93 553.89 155.54"/><polygon class="cls-1" points="575.82 155.54 570.21 155.54 572.97 149.93 575.82 155.54"/><polygon class="cls-1" points="49.46 133.61 43.85 133.61 46.6 128 49.46 133.61"/><polygon class="cls-1" points="71.39 133.61 65.78 133.61 68.53 128 71.39 133.61"/><polygon class="cls-1" points="93.32 133.61 87.71 133.61 90.47 128 93.32 133.61"/><polygon class="cls-1" points="115.25 133.61 109.64 133.61 112.4 128 115.25 133.61"/><polygon class="cls-1" points="137.19 133.61 131.58 133.61 134.33 128 137.19 133.61"/><polygon class="cls-1" points="159.12 133.61 153.51 133.61 156.26 128 159.12 133.61"/><polygon class="cls-1" points="181.05 133.61 175.44 133.61 178.19 128 181.05 133.61"/><polygon class="cls-1" points="202.98 133.61 197.37 133.61 200.13 128 202.98 133.61"/><polygon class="cls-1" points="224.91 133.61 219.3 133.61 222.06 128 224.91 133.61"/><polygon class="cls-1" points="246.84 133.61 241.24 133.61 243.99 128 246.84 133.61"/><polygon class="cls-1" points="268.78 133.61 263.17 133.61 265.92 128 268.78 133.61"/><polygon class="cls-1" points="290.71 133.61 285.1 133.61 287.85 128 290.71 133.61"/><polygon class="cls-1" points="312.64 133.61 307.03 133.61 309.78 128 312.64 133.61"/><polygon class="cls-1" points="334.57 133.61 328.96 133.61 331.72 128 334.57 133.61"/><polygon class="cls-1" points="356.5 133.61 350.89 133.61 353.65 128 356.5 133.61"/><polygon class="cls-1" points="378.44 133.61 372.83 133.61 375.58 128 378.44 133.61"/><polygon class="cls-1" points="400.37 133.61 394.76 133.61 397.51 128 400.37 133.61"/><polygon class="cls-1" points="422.3 133.61 416.69 133.61 419.44 128 422.3 133.61"/><polygon class="cls-1" points="444.23 133.61 438.62 133.61 441.38 128 444.23 133.61"/><polygon class="cls-1" points="466.16 133.61 460.55 133.61 463.31 128 466.16 133.61"/><polygon class="cls-1" points="488.09 133.61 482.49 133.61 485.24 128 488.09 133.61"/><polygon class="cls-1" points="510.03 133.61 504.42 133.61 507.17 128 510.03 133.61"/><polygon class="cls-1" points="531.96 133.61 526.35 133.61 529.1 128 531.96 133.61"/><polygon class="cls-1" points="553.89 133.61 548.28 133.61 551.03 128 553.89 133.61"/><polygon class="cls-1" points="575.82 133.61 570.21 133.61 572.97 128 575.82 133.61"/><polygon class="cls-1" points="5.61 176.28 0 176.28 2.75 170.67 5.61 176.28"/><polygon class="cls-1" points="5.61 198.21 0 198.21 2.75 192.6 5.61 198.21"/><polygon class="cls-1" points="27.53 176.28 21.92 176.28 24.67 170.67 27.53 176.28"/><polygon class="cls-1" points="27.53 198.21 21.92 198.21 24.67 192.6 27.53 198.21"/><polygon class="cls-1" points="49.46 198.21 43.85 198.21 46.6 192.6 49.46 198.21"/><polygon class="cls-1" points="71.39 198.21 65.78 198.21 68.53 192.6 71.39 198.21"/><polygon class="cls-1" points="93.32 198.21 87.71 198.21 90.47 192.6 93.32 198.21"/><polygon class="cls-1" points="115.25 198.21 109.64 198.21 112.4 192.6 115.25 198.21"/><polygon class="cls-1" points="137.19 198.21 131.58 198.21 134.33 192.6 137.19 198.21"/><polygon class="cls-1" points="159.12 198.21 153.51 198.21 156.26 192.6 159.12 198.21"/><polygon class="cls-1" points="181.05 198.21 175.44 198.21 178.19 192.6 181.05 198.21"/><polygon class="cls-1" points="202.98 198.21 197.37 198.21 200.13 192.6 202.98 198.21"/><polygon class="cls-1" points="224.91 198.21 219.3 198.21 222.06 192.6 224.91 198.21"/><polygon class="cls-1" points="246.84 198.21 241.24 198.21 243.99 192.6 246.84 198.21"/><polygon class="cls-1" points="268.78 198.21 263.17 198.21 265.92 192.6 268.78 198.21"/><polygon class="cls-1" points="290.71 198.21 285.1 198.21 287.85 192.6 290.71 198.21"/><polygon class="cls-1" points="312.64 198.21 307.03 198.21 309.78 192.6 312.64 198.21"/><polygon class="cls-1" points="334.57 198.21 328.96 198.21 331.72 192.6 334.57 198.21"/><polygon class="cls-1" points="356.5 198.21 350.89 198.21 353.65 192.6 356.5 198.21"/><polygon class="cls-1" points="378.44 198.21 372.83 198.21 375.58 192.6 378.44 198.21"/><polygon class="cls-1" points="400.37 198.21 394.76 198.21 397.51 192.6 400.37 198.21"/><polygon class="cls-1" points="422.3 198.21 416.69 198.21 419.44 192.6 422.3 198.21"/><polygon class="cls-1" points="444.23 198.21 438.62 198.21 441.38 192.6 444.23 198.21"/><polygon class="cls-1" points="466.16 198.21 460.55 198.21 463.31 192.6 466.16 198.21"/><polygon class="cls-1" points="488.09 198.21 482.49 198.21 485.24 192.6 488.09 198.21"/><polygon class="cls-1" points="510.03 198.21 504.42 198.21 507.17 192.6 510.03 198.21"/><polygon class="cls-1" points="531.96 198.21 526.35 198.21 529.1 192.6 531.96 198.21"/><polygon class="cls-1" points="553.89 198.21 548.28 198.21 551.03 192.6 553.89 198.21"/><polygon class="cls-1" points="575.82 198.21 570.21 198.21 572.97 192.6 575.82 198.21"/><polygon class="cls-1" points="49.46 176.28 43.85 176.28 46.6 170.67 49.46 176.28"/><polygon class="cls-1" points="71.39 176.28 65.78 176.28 68.53 170.67 71.39 176.28"/><polygon class="cls-1" points="93.32 176.28 87.71 176.28 90.47 170.67 93.32 176.28"/><polygon class="cls-1" points="115.25 176.28 109.64 176.28 112.4 170.67 115.25 176.28"/><polygon class="cls-1" points="137.19 176.28 131.58 176.28 134.33 170.67 137.19 176.28"/><polygon class="cls-1" points="159.12 176.28 153.51 176.28 156.26 170.67 159.12 176.28"/><polygon class="cls-1" points="181.05 176.28 175.44 176.28 178.19 170.67 181.05 176.28"/><polygon class="cls-1" points="202.98 176.28 197.37 176.28 200.13 170.67 202.98 176.28"/><polygon class="cls-1" points="224.91 176.28 219.3 176.28 222.06 170.67 224.91 176.28"/><polygon class="cls-1" points="246.84 176.28 241.24 176.28 243.99 170.67 246.84 176.28"/><polygon class="cls-1" points="268.78 176.28 263.17 176.28 265.92 170.67 268.78 176.28"/><polygon class="cls-1" points="290.71 176.28 285.1 176.28 287.85 170.67 290.71 176.28"/><polygon class="cls-1" points="312.64 176.28 307.03 176.28 309.78 170.67 312.64 176.28"/><polygon class="cls-1" points="334.57 176.28 328.96 176.28 331.72 170.67 334.57 176.28"/><polygon class="cls-1" points="356.5 176.28 350.89 176.28 353.65 170.67 356.5 176.28"/><polygon class="cls-1" points="378.44 176.28 372.83 176.28 375.58 170.67 378.44 176.28"/><polygon class="cls-1" points="400.37 176.28 394.76 176.28 397.51 170.67 400.37 176.28"/><polygon class="cls-1" points="422.3 176.28 416.69 176.28 419.44 170.67 422.3 176.28"/><polygon class="cls-1" points="444.23 176.28 438.62 176.28 441.38 170.67 444.23 176.28"/><polygon class="cls-1" points="466.16 176.28 460.55 176.28 463.31 170.67 466.16 176.28"/><polygon class="cls-1" points="488.09 176.28 482.49 176.28 485.24 170.67 488.09 176.28"/><polygon class="cls-1" points="510.03 176.28 504.42 176.28 507.17 170.67 510.03 176.28"/><polygon class="cls-1" points="531.96 176.28 526.35 176.28 529.1 170.67 531.96 176.28"/><polygon class="cls-1" points="553.89 176.28 548.28 176.28 551.03 170.67 553.89 176.28"/><polygon class="cls-1" points="575.82 176.28 570.21 176.28 572.97 170.67 575.82 176.28"/><polygon class="cls-1" points="5.61 218.94 0 218.94 2.75 213.33 5.61 218.94"/><polygon class="cls-1" points="5.61 240.88 0 240.88 2.75 235.26 5.61 240.88"/><polygon class="cls-1" points="27.53 218.94 21.92 218.94 24.67 213.33 27.53 218.94"/><polygon class="cls-1" points="27.53 240.88 21.92 240.88 24.67 235.26 27.53 240.88"/><polygon class="cls-1" points="49.46 240.88 43.85 240.88 46.6 235.26 49.46 240.88"/><polygon class="cls-1" points="71.39 240.88 65.78 240.88 68.53 235.26 71.39 240.88"/><polygon class="cls-1" points="93.32 240.88 87.71 240.88 90.47 235.26 93.32 240.88"/><polygon class="cls-1" points="115.25 240.88 109.64 240.88 112.4 235.26 115.25 240.88"/><polygon class="cls-1" points="137.19 240.88 131.58 240.88 134.33 235.26 137.19 240.88"/><polygon class="cls-1" points="159.12 240.88 153.51 240.88 156.26 235.26 159.12 240.88"/><polygon class="cls-1" points="181.05 240.88 175.44 240.88 178.19 235.26 181.05 240.88"/><polygon class="cls-1" points="202.98 240.88 197.37 240.88 200.13 235.26 202.98 240.88"/><polygon class="cls-1" points="224.91 240.88 219.3 240.88 222.06 235.26 224.91 240.88"/><polygon class="cls-1" points="246.84 240.88 241.24 240.88 243.99 235.26 246.84 240.88"/><polygon class="cls-1" points="268.78 240.88 263.17 240.88 265.92 235.26 268.78 240.88"/><polygon class="cls-1" points="290.71 240.88 285.1 240.88 287.85 235.26 290.71 240.88"/><polygon class="cls-1" points="312.64 240.88 307.03 240.88 309.78 235.26 312.64 240.88"/><polygon class="cls-1" points="334.57 240.88 328.96 240.88 331.72 235.26 334.57 240.88"/><polygon class="cls-1" points="356.5 240.88 350.89 240.88 353.65 235.26 356.5 240.88"/><polygon class="cls-1" points="378.44 240.88 372.83 240.88 375.58 235.26 378.44 240.88"/><polygon class="cls-1" points="400.37 240.88 394.76 240.88 397.51 235.26 400.37 240.88"/><polygon class="cls-1" points="422.3 240.88 416.69 240.88 419.44 235.26 422.3 240.88"/><polygon class="cls-1" points="444.23 240.88 438.62 240.88 441.38 235.26 444.23 240.88"/><polygon class="cls-1" points="466.16 240.88 460.55 240.88 463.31 235.26 466.16 240.88"/><polygon class="cls-1" points="488.09 240.88 482.49 240.88 485.24 235.26 488.09 240.88"/><polygon class="cls-1" points="510.03 240.88 504.42 240.88 507.17 235.26 510.03 240.88"/><polygon class="cls-1" points="531.96 240.88 526.35 240.88 529.1 235.26 531.96 240.88"/><polygon class="cls-1" points="553.89 240.88 548.28 240.88 551.03 235.26 553.89 240.88"/><polygon class="cls-1" points="575.82 240.88 570.21 240.88 572.97 235.26 575.82 240.88"/><polygon class="cls-1" points="49.46 218.94 43.85 218.94 46.6 213.33 49.46 218.94"/><polygon class="cls-1" points="71.39 218.94 65.78 218.94 68.53 213.33 71.39 218.94"/><polygon class="cls-1" points="93.32 218.94 87.71 218.94 90.47 213.33 93.32 218.94"/><polygon class="cls-1" points="115.25 218.94 109.64 218.94 112.4 213.33 115.25 218.94"/><polygon class="cls-1" points="137.19 218.94 131.58 218.94 134.33 213.33 137.19 218.94"/><polygon class="cls-1" points="159.12 218.94 153.51 218.94 156.26 213.33 159.12 218.94"/><polygon class="cls-1" points="181.05 218.94 175.44 218.94 178.19 213.33 181.05 218.94"/><polygon class="cls-1" points="202.98 218.94 197.37 218.94 200.13 213.33 202.98 218.94"/><polygon class="cls-1" points="224.91 218.94 219.3 218.94 222.06 213.33 224.91 218.94"/><polygon class="cls-1" points="246.84 218.94 241.24 218.94 243.99 213.33 246.84 218.94"/><polygon class="cls-1" points="268.78 218.94 263.17 218.94 265.92 213.33 268.78 218.94"/><polygon class="cls-1" points="290.71 218.94 285.1 218.94 287.85 213.33 290.71 218.94"/><polygon class="cls-1" points="312.64 218.94 307.03 218.94 309.78 213.33 312.64 218.94"/><polygon class="cls-1" points="334.57 218.94 328.96 218.94 331.72 213.33 334.57 218.94"/><polygon class="cls-1" points="356.5 218.94 350.89 218.94 353.65 213.33 356.5 218.94"/><polygon class="cls-1" points="378.44 218.94 372.83 218.94 375.58 213.33 378.44 218.94"/><polygon class="cls-1" points="400.37 218.94 394.76 218.94 397.51 213.33 400.37 218.94"/><polygon class="cls-1" points="422.3 218.94 416.69 218.94 419.44 213.33 422.3 218.94"/><polygon class="cls-1" points="444.23 218.94 438.62 218.94 441.38 213.33 444.23 218.94"/><polygon class="cls-1" points="466.16 218.94 460.55 218.94 463.31 213.33 466.16 218.94"/><polygon class="cls-1" points="488.09 218.94 482.49 218.94 485.24 213.33 488.09 218.94"/><polygon class="cls-1" points="510.03 218.94 504.42 218.94 507.17 213.33 510.03 218.94"/><polygon class="cls-1" points="531.96 218.94 526.35 218.94 529.1 213.33 531.96 218.94"/><polygon class="cls-1" points="553.89 218.94 548.28 218.94 551.03 213.33 553.89 218.94"/><polygon class="cls-1" points="575.82 218.94 570.21 218.94 572.97 213.33 575.82 218.94"/><polygon class="cls-1" points="5.61 261.61 0 261.61 2.75 256 5.61 261.61"/><polygon class="cls-1" points="5.61 283.54 0 283.54 2.75 277.93 5.61 283.54"/><polygon class="cls-1" points="27.53 261.61 21.92 261.61 24.67 256 27.53 261.61"/><polygon class="cls-1" points="27.53 283.54 21.92 283.54 24.67 277.93 27.53 283.54"/><polygon class="cls-1" points="49.46 283.54 43.85 283.54 46.6 277.93 49.46 283.54"/><polygon class="cls-1" points="71.39 283.54 65.78 283.54 68.53 277.93 71.39 283.54"/><polygon class="cls-1" points="93.32 283.54 87.71 283.54 90.47 277.93 93.32 283.54"/><polygon class="cls-1" points="115.25 283.54 109.64 283.54 112.4 277.93 115.25 283.54"/><polygon class="cls-1" points="137.19 283.54 131.58 283.54 134.33 277.93 137.19 283.54"/><polygon class="cls-1" points="159.12 283.54 153.51 283.54 156.26 277.93 159.12 283.54"/><polygon class="cls-1" points="181.05 283.54 175.44 283.54 178.19 277.93 181.05 283.54"/><polygon class="cls-1" points="202.98 283.54 197.37 283.54 200.13 277.93 202.98 283.54"/><polygon class="cls-1" points="224.91 283.54 219.3 283.54 222.06 277.93 224.91 283.54"/><polygon class="cls-1" points="246.84 283.54 241.24 283.54 243.99 277.93 246.84 283.54"/><polygon class="cls-1" points="268.78 283.54 263.17 283.54 265.92 277.93 268.78 283.54"/><polygon class="cls-1" points="290.71 283.54 285.1 283.54 287.85 277.93 290.71 283.54"/><polygon class="cls-1" points="312.64 283.54 307.03 283.54 309.78 277.93 312.64 283.54"/><polygon class="cls-1" points="334.57 283.54 328.96 283.54 331.72 277.93 334.57 283.54"/><polygon class="cls-1" points="356.5 283.54 350.89 283.54 353.65 277.93 356.5 283.54"/><polygon class="cls-1" points="378.44 283.54 372.83 283.54 375.58 277.93 378.44 283.54"/><polygon class="cls-1" points="400.37 283.54 394.76 283.54 397.51 277.93 400.37 283.54"/><polygon class="cls-1" points="422.3 283.54 416.69 283.54 419.44 277.93 422.3 283.54"/><polygon class="cls-1" points="444.23 283.54 438.62 283.54 441.38 277.93 444.23 283.54"/><polygon class="cls-1" points="466.16 283.54 460.55 283.54 463.31 277.93 466.16 283.54"/><polygon class="cls-1" points="488.09 283.54 482.49 283.54 485.24 277.93 488.09 283.54"/><polygon class="cls-1" points="510.03 283.54 504.42 283.54 507.17 277.93 510.03 283.54"/><polygon class="cls-1" points="531.96 283.54 526.35 283.54 529.1 277.93 531.96 283.54"/><polygon class="cls-1" points="553.89 283.54 548.28 283.54 551.03 277.93 553.89 283.54"/><polygon class="cls-1" points="575.82 283.54 570.21 283.54 572.97 277.93 575.82 283.54"/><polygon class="cls-1" points="49.46 261.61 43.85 261.61 46.6 256 49.46 261.61"/><polygon class="cls-1" points="71.39 261.61 65.78 261.61 68.53 256 71.39 261.61"/><polygon class="cls-1" points="93.32 261.61 87.71 261.61 90.47 256 93.32 261.61"/><polygon class="cls-1" points="115.25 261.61 109.64 261.61 112.4 256 115.25 261.61"/><polygon class="cls-1" points="137.19 261.61 131.58 261.61 134.33 256 137.19 261.61"/><polygon class="cls-1" points="159.12 261.61 153.51 261.61 156.26 256 159.12 261.61"/><polygon class="cls-1" points="181.05 261.61 175.44 261.61 178.19 256 181.05 261.61"/><polygon class="cls-1" points="202.98 261.61 197.37 261.61 200.13 256 202.98 261.61"/><polygon class="cls-1" points="224.91 261.61 219.3 261.61 222.06 256 224.91 261.61"/><polygon class="cls-1" points="246.84 261.61 241.24 261.61 243.99 256 246.84 261.61"/><polygon class="cls-1" points="268.78 261.61 263.17 261.61 265.92 256 268.78 261.61"/><polygon class="cls-1" points="290.71 261.61 285.1 261.61 287.85 256 290.71 261.61"/><polygon class="cls-1" points="312.64 261.61 307.03 261.61 309.78 256 312.64 261.61"/><polygon class="cls-1" points="334.57 261.61 328.96 261.61 331.72 256 334.57 261.61"/><polygon class="cls-1" points="356.5 261.61 350.89 261.61 353.65 256 356.5 261.61"/><polygon class="cls-1" points="378.44 261.61 372.83 261.61 375.58 256 378.44 261.61"/><polygon class="cls-1" points="400.37 261.61 394.76 261.61 397.51 256 400.37 261.61"/><polygon class="cls-1" points="422.3 261.61 416.69 261.61 419.44 256 422.3 261.61"/><polygon class="cls-1" points="444.23 261.61 438.62 261.61 441.38 256 444.23 261.61"/><polygon class="cls-1" points="466.16 261.61 460.55 261.61 463.31 256 466.16 261.61"/><polygon class="cls-1" points="488.09 261.61 482.49 261.61 485.24 256 488.09 261.61"/><polygon class="cls-1" points="510.03 261.61 504.42 261.61 507.17 256 510.03 261.61"/><polygon class="cls-1" points="531.96 261.61 526.35 261.61 529.1 256 531.96 261.61"/><polygon class="cls-1" points="553.89 261.61 548.28 261.61 551.03 256 553.89 261.61"/><polygon class="cls-1" points="575.82 261.61 570.21 261.61 572.97 256 575.82 261.61"/><polygon class="cls-1" points="5.61 304.28 0 304.28 2.75 298.67 5.61 304.28"/><polygon class="cls-1" points="5.61 326.21 0 326.21 2.75 320.6 5.61 326.21"/><polygon class="cls-1" points="27.53 304.28 21.92 304.28 24.67 298.67 27.53 304.28"/><polygon class="cls-1" points="27.53 326.21 21.92 326.21 24.67 320.6 27.53 326.21"/><polygon class="cls-1" points="49.46 326.21 43.85 326.21 46.6 320.6 49.46 326.21"/><polygon class="cls-1" points="71.39 326.21 65.78 326.21 68.53 320.6 71.39 326.21"/><polygon class="cls-1" points="93.32 326.21 87.71 326.21 90.47 320.6 93.32 326.21"/><polygon class="cls-1" points="115.25 326.21 109.64 326.21 112.4 320.6 115.25 326.21"/><polygon class="cls-1" points="137.19 326.21 131.58 326.21 134.33 320.6 137.19 326.21"/><polygon class="cls-1" points="159.12 326.21 153.51 326.21 156.26 320.6 159.12 326.21"/><polygon class="cls-1" points="181.05 326.21 175.44 326.21 178.19 320.6 181.05 326.21"/><polygon class="cls-1" points="202.98 326.21 197.37 326.21 200.13 320.6 202.98 326.21"/><polygon class="cls-1" points="224.91 326.21 219.3 326.21 222.06 320.6 224.91 326.21"/><polygon class="cls-1" points="246.84 326.21 241.24 326.21 243.99 320.6 246.84 326.21"/><polygon class="cls-1" points="268.78 326.21 263.17 326.21 265.92 320.6 268.78 326.21"/><polygon class="cls-1" points="290.71 326.21 285.1 326.21 287.85 320.6 290.71 326.21"/><polygon class="cls-1" points="312.64 326.21 307.03 326.21 309.78 320.6 312.64 326.21"/><polygon class="cls-1" points="334.57 326.21 328.96 326.21 331.72 320.6 334.57 326.21"/><polygon class="cls-1" points="356.5 326.21 350.89 326.21 353.65 320.6 356.5 326.21"/><polygon class="cls-1" points="378.44 326.21 372.83 326.21 375.58 320.6 378.44 326.21"/><polygon class="cls-1" points="400.37 326.21 394.76 326.21 397.51 320.6 400.37 326.21"/><polygon class="cls-1" points="422.3 326.21 416.69 326.21 419.44 320.6 422.3 326.21"/><polygon class="cls-1" points="444.23 326.21 438.62 326.21 441.38 320.6 444.23 326.21"/><polygon class="cls-1" points="466.16 326.21 460.55 326.21 463.31 320.6 466.16 326.21"/><polygon class="cls-1" points="488.09 326.21 482.49 326.21 485.24 320.6 488.09 326.21"/><polygon class="cls-1" points="510.03 326.21 504.42 326.21 507.17 320.6 510.03 326.21"/><polygon class="cls-1" points="531.96 326.21 526.35 326.21 529.1 320.6 531.96 326.21"/><polygon class="cls-1" points="553.89 326.21 548.28 326.21 551.03 320.6 553.89 326.21"/><polygon class="cls-1" points="575.82 326.21 570.21 326.21 572.97 320.6 575.82 326.21"/><polygon class="cls-1" points="49.46 304.28 43.85 304.28 46.6 298.67 49.46 304.28"/><polygon class="cls-1" points="71.39 304.28 65.78 304.28 68.53 298.67 71.39 304.28"/><polygon class="cls-1" points="93.32 304.28 87.71 304.28 90.47 298.67 93.32 304.28"/><polygon class="cls-1" points="115.25 304.28 109.64 304.28 112.4 298.67 115.25 304.28"/><polygon class="cls-1" points="137.19 304.28 131.58 304.28 134.33 298.67 137.19 304.28"/><polygon class="cls-1" points="159.12 304.28 153.51 304.28 156.26 298.67 159.12 304.28"/><polygon class="cls-1" points="181.05 304.28 175.44 304.28 178.19 298.67 181.05 304.28"/><polygon class="cls-1" points="202.98 304.28 197.37 304.28 200.13 298.67 202.98 304.28"/><polygon class="cls-1" points="224.91 304.28 219.3 304.28 222.06 298.67 224.91 304.28"/><polygon class="cls-1" points="246.84 304.28 241.24 304.28 243.99 298.67 246.84 304.28"/><polygon class="cls-1" points="268.78 304.28 263.17 304.28 265.92 298.67 268.78 304.28"/><polygon class="cls-1" points="290.71 304.28 285.1 304.28 287.85 298.67 290.71 304.28"/><polygon class="cls-1" points="312.64 304.28 307.03 304.28 309.78 298.67 312.64 304.28"/><polygon class="cls-1" points="334.57 304.28 328.96 304.28 331.72 298.67 334.57 304.28"/><polygon class="cls-1" points="356.5 304.28 350.89 304.28 353.65 298.67 356.5 304.28"/><polygon class="cls-1" points="378.44 304.28 372.83 304.28 375.58 298.67 378.44 304.28"/><polygon class="cls-1" points="400.37 304.28 394.76 304.28 397.51 298.67 400.37 304.28"/><polygon class="cls-1" points="422.3 304.28 416.69 304.28 419.44 298.67 422.3 304.28"/><polygon class="cls-1" points="444.23 304.28 438.62 304.28 441.38 298.67 444.23 304.28"/><polygon class="cls-1" points="466.16 304.28 460.55 304.28 463.31 298.67 466.16 304.28"/><polygon class="cls-1" points="488.09 304.28 482.49 304.28 485.24 298.67 488.09 304.28"/><polygon class="cls-1" points="510.03 304.28 504.42 304.28 507.17 298.67 510.03 304.28"/><polygon class="cls-1" points="531.96 304.28 526.35 304.28 529.1 298.67 531.96 304.28"/><polygon class="cls-1" points="553.89 304.28 548.28 304.28 551.03 298.67 553.89 304.28"/><polygon class="cls-1" points="575.82 304.28 570.21 304.28 572.97 298.67 575.82 304.28"/><polygon class="cls-1" points="5.61 346.94 0 346.94 2.75 341.33 5.61 346.94"/><polygon class="cls-1" points="5.61 368.88 0 368.88 2.75 363.26 5.61 368.88"/><polygon class="cls-1" points="27.53 346.94 21.92 346.94 24.67 341.33 27.53 346.94"/><polygon class="cls-1" points="27.53 368.88 21.92 368.88 24.67 363.26 27.53 368.88"/><polygon class="cls-1" points="49.46 368.88 43.85 368.88 46.6 363.26 49.46 368.88"/><polygon class="cls-1" points="71.39 368.88 65.78 368.88 68.53 363.26 71.39 368.88"/><polygon class="cls-1" points="93.32 368.88 87.71 368.88 90.47 363.26 93.32 368.88"/><polygon class="cls-1" points="115.25 368.88 109.64 368.88 112.4 363.26 115.25 368.88"/><polygon class="cls-1" points="137.19 368.88 131.58 368.88 134.33 363.26 137.19 368.88"/><polygon class="cls-1" points="159.12 368.88 153.51 368.88 156.26 363.26 159.12 368.88"/><polygon class="cls-1" points="181.05 368.88 175.44 368.88 178.19 363.26 181.05 368.88"/><polygon class="cls-1" points="202.98 368.88 197.37 368.88 200.13 363.26 202.98 368.88"/><polygon class="cls-1" points="224.91 368.88 219.3 368.88 222.06 363.26 224.91 368.88"/><polygon class="cls-1" points="246.84 368.88 241.24 368.88 243.99 363.26 246.84 368.88"/><polygon class="cls-1" points="268.78 368.88 263.17 368.88 265.92 363.26 268.78 368.88"/><polygon class="cls-1" points="290.71 368.88 285.1 368.88 287.85 363.26 290.71 368.88"/><polygon class="cls-1" points="312.64 368.88 307.03 368.88 309.78 363.26 312.64 368.88"/><polygon class="cls-1" points="334.57 368.88 328.96 368.88 331.72 363.26 334.57 368.88"/><polygon class="cls-1" points="356.5 368.88 350.89 368.88 353.65 363.26 356.5 368.88"/><polygon class="cls-1" points="378.44 368.88 372.83 368.88 375.58 363.26 378.44 368.88"/><polygon class="cls-1" points="400.37 368.88 394.76 368.88 397.51 363.26 400.37 368.88"/><polygon class="cls-1" points="422.3 368.88 416.69 368.88 419.44 363.26 422.3 368.88"/><polygon class="cls-1" points="444.23 368.88 438.62 368.88 441.38 363.26 444.23 368.88"/><polygon class="cls-1" points="466.16 368.88 460.55 368.88 463.31 363.26 466.16 368.88"/><polygon class="cls-1" points="488.09 368.88 482.49 368.88 485.24 363.26 488.09 368.88"/><polygon class="cls-1" points="510.03 368.88 504.42 368.88 507.17 363.26 510.03 368.88"/><polygon class="cls-1" points="531.96 368.88 526.35 368.88 529.1 363.26 531.96 368.88"/><polygon class="cls-1" points="553.89 368.88 548.28 368.88 551.03 363.26 553.89 368.88"/><polygon class="cls-1" points="575.82 368.88 570.21 368.88 572.97 363.26 575.82 368.88"/><polygon class="cls-1" points="49.46 346.94 43.85 346.94 46.6 341.33 49.46 346.94"/><polygon class="cls-1" points="71.39 346.94 65.78 346.94 68.53 341.33 71.39 346.94"/><polygon class="cls-1" points="93.32 346.94 87.71 346.94 90.47 341.33 93.32 346.94"/><polygon class="cls-1" points="115.25 346.94 109.64 346.94 112.4 341.33 115.25 346.94"/><polygon class="cls-1" points="137.19 346.94 131.58 346.94 134.33 341.33 137.19 346.94"/><polygon class="cls-1" points="159.12 346.94 153.51 346.94 156.26 341.33 159.12 346.94"/><polygon class="cls-1" points="181.05 346.94 175.44 346.94 178.19 341.33 181.05 346.94"/><polygon class="cls-1" points="202.98 346.94 197.37 346.94 200.13 341.33 202.98 346.94"/><polygon class="cls-1" points="224.91 346.94 219.3 346.94 222.06 341.33 224.91 346.94"/><polygon class="cls-1" points="246.84 346.94 241.24 346.94 243.99 341.33 246.84 346.94"/><polygon class="cls-1" points="268.78 346.94 263.17 346.94 265.92 341.33 268.78 346.94"/><polygon class="cls-1" points="290.71 346.94 285.1 346.94 287.85 341.33 290.71 346.94"/><polygon class="cls-1" points="312.64 346.94 307.03 346.94 309.78 341.33 312.64 346.94"/><polygon class="cls-1" points="334.57 346.94 328.96 346.94 331.72 341.33 334.57 346.94"/><polygon class="cls-1" points="356.5 346.94 350.89 346.94 353.65 341.33 356.5 346.94"/><polygon class="cls-1" points="378.44 346.94 372.83 346.94 375.58 341.33 378.44 346.94"/><polygon class="cls-1" points="400.37 346.94 394.76 346.94 397.51 341.33 400.37 346.94"/><polygon class="cls-1" points="422.3 346.94 416.69 346.94 419.44 341.33 422.3 346.94"/><polygon class="cls-1" points="444.23 346.94 438.62 346.94 441.38 341.33 444.23 346.94"/><polygon class="cls-1" points="466.16 346.94 460.55 346.94 463.31 341.33 466.16 346.94"/><polygon class="cls-1" points="488.09 346.94 482.49 346.94 485.24 341.33 488.09 346.94"/><polygon class="cls-1" points="510.03 346.94 504.42 346.94 507.17 341.33 510.03 346.94"/><polygon class="cls-1" points="531.96 346.94 526.35 346.94 529.1 341.33 531.96 346.94"/><polygon class="cls-1" points="553.89 346.94 548.28 346.94 551.03 341.33 553.89 346.94"/><polygon class="cls-1" points="575.82 346.94 570.21 346.94 572.97 341.33 575.82 346.94"/><polygon class="cls-1" points="5.61 389.61 0 389.61 2.75 384 5.61 389.61"/><polygon class="cls-1" points="5.61 411.54 0 411.54 2.75 405.93 5.61 411.54"/><polygon class="cls-1" points="27.53 389.61 21.92 389.61 24.67 384 27.53 389.61"/><polygon class="cls-1" points="27.53 411.54 21.92 411.54 24.67 405.93 27.53 411.54"/><polygon class="cls-1" points="49.46 411.54 43.85 411.54 46.6 405.93 49.46 411.54"/><polygon class="cls-1" points="71.39 411.54 65.78 411.54 68.53 405.93 71.39 411.54"/><polygon class="cls-1" points="93.32 411.54 87.71 411.54 90.47 405.93 93.32 411.54"/><polygon class="cls-1" points="115.25 411.54 109.64 411.54 112.4 405.93 115.25 411.54"/><polygon class="cls-1" points="137.19 411.54 131.58 411.54 134.33 405.93 137.19 411.54"/><polygon class="cls-1" points="159.12 411.54 153.51 411.54 156.26 405.93 159.12 411.54"/><polygon class="cls-1" points="181.05 411.54 175.44 411.54 178.19 405.93 181.05 411.54"/><polygon class="cls-1" points="202.98 411.54 197.37 411.54 200.13 405.93 202.98 411.54"/><polygon class="cls-1" points="224.91 411.54 219.3 411.54 222.06 405.93 224.91 411.54"/><polygon class="cls-1" points="246.84 411.54 241.24 411.54 243.99 405.93 246.84 411.54"/><polygon class="cls-1" points="268.78 411.54 263.17 411.54 265.92 405.93 268.78 411.54"/><polygon class="cls-1" points="290.71 411.54 285.1 411.54 287.85 405.93 290.71 411.54"/><polygon class="cls-1" points="312.64 411.54 307.03 411.54 309.78 405.93 312.64 411.54"/><polygon class="cls-1" points="334.57 411.54 328.96 411.54 331.72 405.93 334.57 411.54"/><polygon class="cls-1" points="356.5 411.54 350.89 411.54 353.65 405.93 356.5 411.54"/><polygon class="cls-1" points="378.44 411.54 372.83 411.54 375.58 405.93 378.44 411.54"/><polygon class="cls-1" points="400.37 411.54 394.76 411.54 397.51 405.93 400.37 411.54"/><polygon class="cls-1" points="422.3 411.54 416.69 411.54 419.44 405.93 422.3 411.54"/><polygon class="cls-1" points="444.23 411.54 438.62 411.54 441.38 405.93 444.23 411.54"/><polygon class="cls-1" points="466.16 411.54 460.55 411.54 463.31 405.93 466.16 411.54"/><polygon class="cls-1" points="488.09 411.54 482.49 411.54 485.24 405.93 488.09 411.54"/><polygon class="cls-1" points="510.03 411.54 504.42 411.54 507.17 405.93 510.03 411.54"/><polygon class="cls-1" points="531.96 411.54 526.35 411.54 529.1 405.93 531.96 411.54"/><polygon class="cls-1" points="553.89 411.54 548.28 411.54 551.03 405.93 553.89 411.54"/><polygon class="cls-1" points="575.82 411.54 570.21 411.54 572.97 405.93 575.82 411.54"/><polygon class="cls-1" points="49.46 389.61 43.85 389.61 46.6 384 49.46 389.61"/><polygon class="cls-1" points="71.39 389.61 65.78 389.61 68.53 384 71.39 389.61"/><polygon class="cls-1" points="93.32 389.61 87.71 389.61 90.47 384 93.32 389.61"/><polygon class="cls-1" points="115.25 389.61 109.64 389.61 112.4 384 115.25 389.61"/><polygon class="cls-1" points="137.19 389.61 131.58 389.61 134.33 384 137.19 389.61"/><polygon class="cls-1" points="159.12 389.61 153.51 389.61 156.26 384 159.12 389.61"/><polygon class="cls-1" points="181.05 389.61 175.44 389.61 178.19 384 181.05 389.61"/><polygon class="cls-1" points="202.98 389.61 197.37 389.61 200.13 384 202.98 389.61"/><polygon class="cls-1" points="224.91 389.61 219.3 389.61 222.06 384 224.91 389.61"/><polygon class="cls-1" points="246.84 389.61 241.24 389.61 243.99 384 246.84 389.61"/><polygon class="cls-1" points="268.78 389.61 263.17 389.61 265.92 384 268.78 389.61"/><polygon class="cls-1" points="290.71 389.61 285.1 389.61 287.85 384 290.71 389.61"/><polygon class="cls-1" points="312.64 389.61 307.03 389.61 309.78 384 312.64 389.61"/><polygon class="cls-1" points="334.57 389.61 328.96 389.61 331.72 384 334.57 389.61"/><polygon class="cls-1" points="356.5 389.61 350.89 389.61 353.65 384 356.5 389.61"/><polygon class="cls-1" points="378.44 389.61 372.83 389.61 375.58 384 378.44 389.61"/><polygon class="cls-1" points="400.37 389.61 394.76 389.61 397.51 384 400.37 389.61"/><polygon class="cls-1" points="422.3 389.61 416.69 389.61 419.44 384 422.3 389.61"/><polygon class="cls-1" points="444.23 389.61 438.62 389.61 441.38 384 444.23 389.61"/><polygon class="cls-1" points="466.16 389.61 460.55 389.61 463.31 384 466.16 389.61"/><polygon class="cls-1" points="488.09 389.61 482.49 389.61 485.24 384 488.09 389.61"/><polygon class="cls-1" points="510.03 389.61 504.42 389.61 507.17 384 510.03 389.61"/><polygon class="cls-1" points="531.96 389.61 526.35 389.61 529.1 384 531.96 389.61"/><polygon class="cls-1" points="553.89 389.61 548.28 389.61 551.03 384 553.89 389.61"/><polygon class="cls-1" points="575.82 389.61 570.21 389.61 572.97 384 575.82 389.61"/><polygon class="cls-1" points="5.61 432.28 0 432.28 2.75 426.67 5.61 432.28"/><polygon class="cls-1" points="5.61 454.21 0 454.21 2.75 448.6 5.61 454.21"/><polygon class="cls-1" points="27.53 432.28 21.92 432.28 24.67 426.67 27.53 432.28"/><polygon class="cls-1" points="27.53 454.21 21.92 454.21 24.67 448.6 27.53 454.21"/><polygon class="cls-1" points="49.46 454.21 43.85 454.21 46.6 448.6 49.46 454.21"/><polygon class="cls-1" points="71.39 454.21 65.78 454.21 68.53 448.6 71.39 454.21"/><polygon class="cls-1" points="93.32 454.21 87.71 454.21 90.47 448.6 93.32 454.21"/><polygon class="cls-1" points="115.25 454.21 109.64 454.21 112.4 448.6 115.25 454.21"/><polygon class="cls-1" points="137.19 454.21 131.58 454.21 134.33 448.6 137.19 454.21"/><polygon class="cls-1" points="159.12 454.21 153.51 454.21 156.26 448.6 159.12 454.21"/><polygon class="cls-1" points="181.05 454.21 175.44 454.21 178.19 448.6 181.05 454.21"/><polygon class="cls-1" points="202.98 454.21 197.37 454.21 200.13 448.6 202.98 454.21"/><polygon class="cls-1" points="224.91 454.21 219.3 454.21 222.06 448.6 224.91 454.21"/><polygon class="cls-1" points="246.84 454.21 241.24 454.21 243.99 448.6 246.84 454.21"/><polygon class="cls-1" points="268.78 454.21 263.17 454.21 265.92 448.6 268.78 454.21"/><polygon class="cls-1" points="290.71 454.21 285.1 454.21 287.85 448.6 290.71 454.21"/><polygon class="cls-1" points="312.64 454.21 307.03 454.21 309.78 448.6 312.64 454.21"/><polygon class="cls-1" points="334.57 454.21 328.96 454.21 331.72 448.6 334.57 454.21"/><polygon class="cls-1" points="356.5 454.21 350.89 454.21 353.65 448.6 356.5 454.21"/><polygon class="cls-1" points="378.44 454.21 372.83 454.21 375.58 448.6 378.44 454.21"/><polygon class="cls-1" points="400.37 454.21 394.76 454.21 397.51 448.6 400.37 454.21"/><polygon class="cls-1" points="422.3 454.21 416.69 454.21 419.44 448.6 422.3 454.21"/><polygon class="cls-1" points="444.23 454.21 438.62 454.21 441.38 448.6 444.23 454.21"/><polygon class="cls-1" points="466.16 454.21 460.55 454.21 463.31 448.6 466.16 454.21"/><polygon class="cls-1" points="488.09 454.21 482.49 454.21 485.24 448.6 488.09 454.21"/><polygon class="cls-1" points="510.03 454.21 504.42 454.21 507.17 448.6 510.03 454.21"/><polygon class="cls-1" points="531.96 454.21 526.35 454.21 529.1 448.6 531.96 454.21"/><polygon class="cls-1" points="553.89 454.21 548.28 454.21 551.03 448.6 553.89 454.21"/><polygon class="cls-1" points="575.82 454.21 570.21 454.21 572.97 448.6 575.82 454.21"/><polygon class="cls-1" points="49.46 432.28 43.85 432.28 46.6 426.67 49.46 432.28"/><polygon class="cls-1" points="71.39 432.28 65.78 432.28 68.53 426.67 71.39 432.28"/><polygon class="cls-1" points="93.32 432.28 87.71 432.28 90.47 426.67 93.32 432.28"/><polygon class="cls-1" points="115.25 432.28 109.64 432.28 112.4 426.67 115.25 432.28"/><polygon class="cls-1" points="137.19 432.28 131.58 432.28 134.33 426.67 137.19 432.28"/><polygon class="cls-1" points="159.12 432.28 153.51 432.28 156.26 426.67 159.12 432.28"/><polygon class="cls-1" points="181.05 432.28 175.44 432.28 178.19 426.67 181.05 432.28"/><polygon class="cls-1" points="202.98 432.28 197.37 432.28 200.13 426.67 202.98 432.28"/><polygon class="cls-1" points="224.91 432.28 219.3 432.28 222.06 426.67 224.91 432.28"/><polygon class="cls-1" points="246.84 432.28 241.24 432.28 243.99 426.67 246.84 432.28"/><polygon class="cls-1" points="268.78 432.28 263.17 432.28 265.92 426.67 268.78 432.28"/><polygon class="cls-1" points="290.71 432.28 285.1 432.28 287.85 426.67 290.71 432.28"/><polygon class="cls-1" points="312.64 432.28 307.03 432.28 309.78 426.67 312.64 432.28"/><polygon class="cls-1" points="334.57 432.28 328.96 432.28 331.72 426.67 334.57 432.28"/><polygon class="cls-1" points="356.5 432.28 350.89 432.28 353.65 426.67 356.5 432.28"/><polygon class="cls-1" points="378.44 432.28 372.83 432.28 375.58 426.67 378.44 432.28"/><polygon class="cls-1" points="400.37 432.28 394.76 432.28 397.51 426.67 400.37 432.28"/><polygon class="cls-1" points="422.3 432.28 416.69 432.28 419.44 426.67 422.3 432.28"/><polygon class="cls-1" points="444.23 432.28 438.62 432.28 441.38 426.67 444.23 432.28"/><polygon class="cls-1" points="466.16 432.28 460.55 432.28 463.31 426.67 466.16 432.28"/><polygon class="cls-1" points="488.09 432.28 482.49 432.28 485.24 426.67 488.09 432.28"/><polygon class="cls-1" points="510.03 432.28 504.42 432.28 507.17 426.67 510.03 432.28"/><polygon class="cls-1" points="531.96 432.28 526.35 432.28 529.1 426.67 531.96 432.28"/><polygon class="cls-1" points="553.89 432.28 548.28 432.28 551.03 426.67 553.89 432.28"/><polygon class="cls-1" points="575.82 432.28 570.21 432.28 572.97 426.67 575.82 432.28"/><polygon class="cls-1" points="5.61 474.94 0 474.94 2.75 469.33 5.61 474.94"/><polygon class="cls-1" points="5.61 496.88 0 496.88 2.75 491.26 5.61 496.88"/><polygon class="cls-1" points="27.53 474.94 21.92 474.94 24.67 469.33 27.53 474.94"/><polygon class="cls-1" points="27.53 496.88 21.92 496.88 24.67 491.26 27.53 496.88"/><polygon class="cls-1" points="49.46 496.88 43.85 496.88 46.6 491.26 49.46 496.88"/><polygon class="cls-1" points="71.39 496.88 65.78 496.88 68.53 491.26 71.39 496.88"/><polygon class="cls-1" points="93.32 496.88 87.71 496.88 90.47 491.26 93.32 496.88"/><polygon class="cls-1" points="115.25 496.88 109.64 496.88 112.4 491.26 115.25 496.88"/><polygon class="cls-1" points="137.19 496.88 131.58 496.88 134.33 491.26 137.19 496.88"/><polygon class="cls-1" points="159.12 496.88 153.51 496.88 156.26 491.26 159.12 496.88"/><polygon class="cls-1" points="181.05 496.88 175.44 496.88 178.19 491.26 181.05 496.88"/><polygon class="cls-1" points="202.98 496.88 197.37 496.88 200.13 491.26 202.98 496.88"/><polygon class="cls-1" points="224.91 496.88 219.3 496.88 222.06 491.26 224.91 496.88"/><polygon class="cls-1" points="246.84 496.88 241.24 496.88 243.99 491.26 246.84 496.88"/><polygon class="cls-1" points="268.78 496.88 263.17 496.88 265.92 491.26 268.78 496.88"/><polygon class="cls-1" points="290.71 496.88 285.1 496.88 287.85 491.26 290.71 496.88"/><polygon class="cls-1" points="312.64 496.88 307.03 496.88 309.78 491.26 312.64 496.88"/><polygon class="cls-1" points="334.57 496.88 328.96 496.88 331.72 491.26 334.57 496.88"/><polygon class="cls-1" points="356.5 496.88 350.89 496.88 353.65 491.26 356.5 496.88"/><polygon class="cls-1" points="378.44 496.88 372.83 496.88 375.58 491.26 378.44 496.88"/><polygon class="cls-1" points="400.37 496.88 394.76 496.88 397.51 491.26 400.37 496.88"/><polygon class="cls-1" points="422.3 496.88 416.69 496.88 419.44 491.26 422.3 496.88"/><polygon class="cls-1" points="444.23 496.88 438.62 496.88 441.38 491.26 444.23 496.88"/><polygon class="cls-1" points="466.16 496.88 460.55 496.88 463.31 491.26 466.16 496.88"/><polygon class="cls-1" points="488.09 496.88 482.49 496.88 485.24 491.26 488.09 496.88"/><polygon class="cls-1" points="510.03 496.88 504.42 496.88 507.17 491.26 510.03 496.88"/><polygon class="cls-1" points="531.96 496.88 526.35 496.88 529.1 491.26 531.96 496.88"/><polygon class="cls-1" points="553.89 496.88 548.28 496.88 551.03 491.26 553.89 496.88"/><polygon class="cls-1" points="575.82 496.88 570.21 496.88 572.97 491.26 575.82 496.88"/><polygon class="cls-1" points="49.46 474.94 43.85 474.94 46.6 469.33 49.46 474.94"/><polygon class="cls-1" points="71.39 474.94 65.78 474.94 68.53 469.33 71.39 474.94"/><polygon class="cls-1" points="93.32 474.94 87.71 474.94 90.47 469.33 93.32 474.94"/><polygon class="cls-1" points="115.25 474.94 109.64 474.94 112.4 469.33 115.25 474.94"/><polygon class="cls-1" points="137.19 474.94 131.58 474.94 134.33 469.33 137.19 474.94"/><polygon class="cls-1" points="159.12 474.94 153.51 474.94 156.26 469.33 159.12 474.94"/><polygon class="cls-1" points="181.05 474.94 175.44 474.94 178.19 469.33 181.05 474.94"/><polygon class="cls-1" points="202.98 474.94 197.37 474.94 200.13 469.33 202.98 474.94"/><polygon class="cls-1" points="224.91 474.94 219.3 474.94 222.06 469.33 224.91 474.94"/><polygon class="cls-1" points="246.84 474.94 241.24 474.94 243.99 469.33 246.84 474.94"/><polygon class="cls-1" points="268.78 474.94 263.17 474.94 265.92 469.33 268.78 474.94"/><polygon class="cls-1" points="290.71 474.94 285.1 474.94 287.85 469.33 290.71 474.94"/><polygon class="cls-1" points="312.64 474.94 307.03 474.94 309.78 469.33 312.64 474.94"/><polygon class="cls-1" points="334.57 474.94 328.96 474.94 331.72 469.33 334.57 474.94"/><polygon class="cls-1" points="356.5 474.94 350.89 474.94 353.65 469.33 356.5 474.94"/><polygon class="cls-1" points="378.44 474.94 372.83 474.94 375.58 469.33 378.44 474.94"/><polygon class="cls-1" points="400.37 474.94 394.76 474.94 397.51 469.33 400.37 474.94"/><polygon class="cls-1" points="422.3 474.94 416.69 474.94 419.44 469.33 422.3 474.94"/><polygon class="cls-1" points="444.23 474.94 438.62 474.94 441.38 469.33 444.23 474.94"/><polygon class="cls-1" points="466.16 474.94 460.55 474.94 463.31 469.33 466.16 474.94"/><polygon class="cls-1" points="488.09 474.94 482.49 474.94 485.24 469.33 488.09 474.94"/><polygon class="cls-1" points="510.03 474.94 504.42 474.94 507.17 469.33 510.03 474.94"/><polygon class="cls-1" points="531.96 474.94 526.35 474.94 529.1 469.33 531.96 474.94"/><polygon class="cls-1" points="553.89 474.94 548.28 474.94 551.03 469.33 553.89 474.94"/><polygon class="cls-1" points="575.82 474.94 570.21 474.94 572.97 469.33 575.82 474.94"/><polygon class="cls-1" points="5.61 517.61 0 517.61 2.75 512 5.61 517.61"/><polygon class="cls-1" points="5.61 539.54 0 539.54 2.75 533.93 5.61 539.54"/><polygon class="cls-1" points="27.53 517.61 21.92 517.61 24.67 512 27.53 517.61"/><polygon class="cls-1" points="27.53 539.54 21.92 539.54 24.67 533.93 27.53 539.54"/><polygon class="cls-1" points="49.46 539.54 43.85 539.54 46.6 533.93 49.46 539.54"/><polygon class="cls-1" points="71.39 539.54 65.78 539.54 68.53 533.93 71.39 539.54"/><polygon class="cls-1" points="93.32 539.54 87.71 539.54 90.47 533.93 93.32 539.54"/><polygon class="cls-1" points="115.25 539.54 109.64 539.54 112.4 533.93 115.25 539.54"/><polygon class="cls-1" points="137.19 539.54 131.58 539.54 134.33 533.93 137.19 539.54"/><polygon class="cls-1" points="159.12 539.54 153.51 539.54 156.26 533.93 159.12 539.54"/><polygon class="cls-1" points="181.05 539.54 175.44 539.54 178.19 533.93 181.05 539.54"/><polygon class="cls-1" points="202.98 539.54 197.37 539.54 200.13 533.93 202.98 539.54"/><polygon class="cls-1" points="224.91 539.54 219.3 539.54 222.06 533.93 224.91 539.54"/><polygon class="cls-1" points="246.84 539.54 241.24 539.54 243.99 533.93 246.84 539.54"/><polygon class="cls-1" points="268.78 539.54 263.17 539.54 265.92 533.93 268.78 539.54"/><polygon class="cls-1" points="290.71 539.54 285.1 539.54 287.85 533.93 290.71 539.54"/><polygon class="cls-1" points="312.64 539.54 307.03 539.54 309.78 533.93 312.64 539.54"/><polygon class="cls-1" points="334.57 539.54 328.96 539.54 331.72 533.93 334.57 539.54"/><polygon class="cls-1" points="356.5 539.54 350.89 539.54 353.65 533.93 356.5 539.54"/><polygon class="cls-1" points="378.44 539.54 372.83 539.54 375.58 533.93 378.44 539.54"/><polygon class="cls-1" points="400.37 539.54 394.76 539.54 397.51 533.93 400.37 539.54"/><polygon class="cls-1" points="422.3 539.54 416.69 539.54 419.44 533.93 422.3 539.54"/><polygon class="cls-1" points="444.23 539.54 438.62 539.54 441.38 533.93 444.23 539.54"/><polygon class="cls-1" points="466.16 539.54 460.55 539.54 463.31 533.93 466.16 539.54"/><polygon class="cls-1" points="488.09 539.54 482.49 539.54 485.24 533.93 488.09 539.54"/><polygon class="cls-1" points="510.03 539.54 504.42 539.54 507.17 533.93 510.03 539.54"/><polygon class="cls-1" points="531.96 539.54 526.35 539.54 529.1 533.93 531.96 539.54"/><polygon class="cls-1" points="553.89 539.54 548.28 539.54 551.03 533.93 553.89 539.54"/><polygon class="cls-1" points="575.82 539.54 570.21 539.54 572.97 533.93 575.82 539.54"/><polygon class="cls-1" points="49.46 517.61 43.85 517.61 46.6 512 49.46 517.61"/><polygon class="cls-1" points="71.39 517.61 65.78 517.61 68.53 512 71.39 517.61"/><polygon class="cls-1" points="93.32 517.61 87.71 517.61 90.47 512 93.32 517.61"/><polygon class="cls-1" points="115.25 517.61 109.64 517.61 112.4 512 115.25 517.61"/><polygon class="cls-1" points="137.19 517.61 131.58 517.61 134.33 512 137.19 517.61"/><polygon class="cls-1" points="159.12 517.61 153.51 517.61 156.26 512 159.12 517.61"/><polygon class="cls-1" points="181.05 517.61 175.44 517.61 178.19 512 181.05 517.61"/><polygon class="cls-1" points="202.98 517.61 197.37 517.61 200.13 512 202.98 517.61"/><polygon class="cls-1" points="224.91 517.61 219.3 517.61 222.06 512 224.91 517.61"/><polygon class="cls-1" points="246.84 517.61 241.24 517.61 243.99 512 246.84 517.61"/><polygon class="cls-1" points="268.78 517.61 263.17 517.61 265.92 512 268.78 517.61"/><polygon class="cls-1" points="290.71 517.61 285.1 517.61 287.85 512 290.71 517.61"/><polygon class="cls-1" points="312.64 517.61 307.03 517.61 309.78 512 312.64 517.61"/><polygon class="cls-1" points="334.57 517.61 328.96 517.61 331.72 512 334.57 517.61"/><polygon class="cls-1" points="356.5 517.61 350.89 517.61 353.65 512 356.5 517.61"/><polygon class="cls-1" points="378.44 517.61 372.83 517.61 375.58 512 378.44 517.61"/><polygon class="cls-1" points="400.37 517.61 394.76 517.61 397.51 512 400.37 517.61"/><polygon class="cls-1" points="422.3 517.61 416.69 517.61 419.44 512 422.3 517.61"/><polygon class="cls-1" points="444.23 517.61 438.62 517.61 441.38 512 444.23 517.61"/><polygon class="cls-1" points="466.16 517.61 460.55 517.61 463.31 512 466.16 517.61"/><polygon class="cls-1" points="488.09 517.61 482.49 517.61 485.24 512 488.09 517.61"/><polygon class="cls-1" points="510.03 517.61 504.42 517.61 507.17 512 510.03 517.61"/><polygon class="cls-1" points="531.96 517.61 526.35 517.61 529.1 512 531.96 517.61"/><polygon class="cls-1" points="553.89 517.61 548.28 517.61 551.03 512 553.89 517.61"/><polygon class="cls-1" points="575.82 517.61 570.21 517.61 572.97 512 575.82 517.61"/><polygon class="cls-1" points="5.61 560.28 0 560.28 2.75 554.67 5.61 560.28"/><polygon class="cls-1" points="5.61 582.21 0 582.21 2.75 576.6 5.61 582.21"/><polygon class="cls-1" points="27.53 560.28 21.92 560.28 24.67 554.67 27.53 560.28"/><polygon class="cls-1" points="27.53 582.21 21.92 582.21 24.67 576.6 27.53 582.21"/><polygon class="cls-1" points="49.46 582.21 43.85 582.21 46.6 576.6 49.46 582.21"/><polygon class="cls-1" points="71.39 582.21 65.78 582.21 68.53 576.6 71.39 582.21"/><polygon class="cls-1" points="93.32 582.21 87.71 582.21 90.47 576.6 93.32 582.21"/><polygon class="cls-1" points="115.25 582.21 109.64 582.21 112.4 576.6 115.25 582.21"/><polygon class="cls-1" points="137.19 582.21 131.58 582.21 134.33 576.6 137.19 582.21"/><polygon class="cls-1" points="159.12 582.21 153.51 582.21 156.26 576.6 159.12 582.21"/><polygon class="cls-1" points="181.05 582.21 175.44 582.21 178.19 576.6 181.05 582.21"/><polygon class="cls-1" points="202.98 582.21 197.37 582.21 200.13 576.6 202.98 582.21"/><polygon class="cls-1" points="224.91 582.21 219.3 582.21 222.06 576.6 224.91 582.21"/><polygon class="cls-1" points="246.84 582.21 241.24 582.21 243.99 576.6 246.84 582.21"/><polygon class="cls-1" points="268.78 582.21 263.17 582.21 265.92 576.6 268.78 582.21"/><polygon class="cls-1" points="290.71 582.21 285.1 582.21 287.85 576.6 290.71 582.21"/><polygon class="cls-1" points="312.64 582.21 307.03 582.21 309.78 576.6 312.64 582.21"/><polygon class="cls-1" points="334.57 582.21 328.96 582.21 331.72 576.6 334.57 582.21"/><polygon class="cls-1" points="356.5 582.21 350.89 582.21 353.65 576.6 356.5 582.21"/><polygon class="cls-1" points="378.44 582.21 372.83 582.21 375.58 576.6 378.44 582.21"/><polygon class="cls-1" points="400.37 582.21 394.76 582.21 397.51 576.6 400.37 582.21"/><polygon class="cls-1" points="422.3 582.21 416.69 582.21 419.44 576.6 422.3 582.21"/><polygon class="cls-1" points="444.23 582.21 438.62 582.21 441.38 576.6 444.23 582.21"/><polygon class="cls-1" points="466.16 582.21 460.55 582.21 463.31 576.6 466.16 582.21"/><polygon class="cls-1" points="488.09 582.21 482.49 582.21 485.24 576.6 488.09 582.21"/><polygon class="cls-1" points="510.03 582.21 504.42 582.21 507.17 576.6 510.03 582.21"/><polygon class="cls-1" points="531.96 582.21 526.35 582.21 529.1 576.6 531.96 582.21"/><polygon class="cls-1" points="553.89 582.21 548.28 582.21 551.03 576.6 553.89 582.21"/><polygon class="cls-1" points="575.82 582.21 570.21 582.21 572.97 576.6 575.82 582.21"/><polygon class="cls-1" points="49.46 560.28 43.85 560.28 46.6 554.67 49.46 560.28"/><polygon class="cls-1" points="71.39 560.28 65.78 560.28 68.53 554.67 71.39 560.28"/><polygon class="cls-1" points="93.32 560.28 87.71 560.28 90.47 554.67 93.32 560.28"/><polygon class="cls-1" points="115.25 560.28 109.64 560.28 112.4 554.67 115.25 560.28"/><polygon class="cls-1" points="137.19 560.28 131.58 560.28 134.33 554.67 137.19 560.28"/><polygon class="cls-1" points="159.12 560.28 153.51 560.28 156.26 554.67 159.12 560.28"/><polygon class="cls-1" points="181.05 560.28 175.44 560.28 178.19 554.67 181.05 560.28"/><polygon class="cls-1" points="202.98 560.28 197.37 560.28 200.13 554.67 202.98 560.28"/><polygon class="cls-1" points="224.91 560.28 219.3 560.28 222.06 554.67 224.91 560.28"/><polygon class="cls-1" points="246.84 560.28 241.24 560.28 243.99 554.67 246.84 560.28"/><polygon class="cls-1" points="268.78 560.28 263.17 560.28 265.92 554.67 268.78 560.28"/><polygon class="cls-1" points="290.71 560.28 285.1 560.28 287.85 554.67 290.71 560.28"/><polygon class="cls-1" points="312.64 560.28 307.03 560.28 309.78 554.67 312.64 560.28"/><polygon class="cls-1" points="334.57 560.28 328.96 560.28 331.72 554.67 334.57 560.28"/><polygon class="cls-1" points="356.5 560.28 350.89 560.28 353.65 554.67 356.5 560.28"/><polygon class="cls-1" points="378.44 560.28 372.83 560.28 375.58 554.67 378.44 560.28"/><polygon class="cls-1" points="400.37 560.28 394.76 560.28 397.51 554.67 400.37 560.28"/><polygon class="cls-1" points="422.3 560.28 416.69 560.28 419.44 554.67 422.3 560.28"/><polygon class="cls-1" points="444.23 560.28 438.62 560.28 441.38 554.67 444.23 560.28"/><polygon class="cls-1" points="466.16 560.28 460.55 560.28 463.31 554.67 466.16 560.28"/><polygon class="cls-1" points="488.09 560.28 482.49 560.28 485.24 554.67 488.09 560.28"/><polygon class="cls-1" points="510.03 560.28 504.42 560.28 507.17 554.67 510.03 560.28"/><polygon class="cls-1" points="531.96 560.28 526.35 560.28 529.1 554.67 531.96 560.28"/><polygon class="cls-1" points="553.89 560.28 548.28 560.28 551.03 554.67 553.89 560.28"/><polygon class="cls-1" points="575.82 560.28 570.21 560.28 572.97 554.67 575.82 560.28"/><polygon class="cls-1" points="5.61 602.94 0 602.94 2.75 597.33 5.61 602.94"/><polygon class="cls-1" points="5.61 624.88 0 624.88 2.75 619.26 5.61 624.88"/><polygon class="cls-1" points="27.53 602.94 21.92 602.94 24.67 597.33 27.53 602.94"/><polygon class="cls-1" points="27.53 624.88 21.92 624.88 24.67 619.26 27.53 624.88"/><polygon class="cls-1" points="49.46 624.88 43.85 624.88 46.6 619.26 49.46 624.88"/><polygon class="cls-1" points="71.39 624.88 65.78 624.88 68.53 619.26 71.39 624.88"/><polygon class="cls-1" points="93.32 624.88 87.71 624.88 90.47 619.26 93.32 624.88"/><polygon class="cls-1" points="115.25 624.88 109.64 624.88 112.4 619.26 115.25 624.88"/><polygon class="cls-1" points="137.19 624.88 131.58 624.88 134.33 619.26 137.19 624.88"/><polygon class="cls-1" points="159.12 624.88 153.51 624.88 156.26 619.26 159.12 624.88"/><polygon class="cls-1" points="181.05 624.88 175.44 624.88 178.19 619.26 181.05 624.88"/><polygon class="cls-1" points="202.98 624.88 197.37 624.88 200.13 619.26 202.98 624.88"/><polygon class="cls-1" points="224.91 624.88 219.3 624.88 222.06 619.26 224.91 624.88"/><polygon class="cls-1" points="246.84 624.88 241.24 624.88 243.99 619.26 246.84 624.88"/><polygon class="cls-1" points="268.78 624.88 263.17 624.88 265.92 619.26 268.78 624.88"/><polygon class="cls-1" points="290.71 624.88 285.1 624.88 287.85 619.26 290.71 624.88"/><polygon class="cls-1" points="312.64 624.88 307.03 624.88 309.78 619.26 312.64 624.88"/><polygon class="cls-1" points="334.57 624.88 328.96 624.88 331.72 619.26 334.57 624.88"/><polygon class="cls-1" points="356.5 624.88 350.89 624.88 353.65 619.26 356.5 624.88"/><polygon class="cls-1" points="378.44 624.88 372.83 624.88 375.58 619.26 378.44 624.88"/><polygon class="cls-1" points="400.37 624.88 394.76 624.88 397.51 619.26 400.37 624.88"/><polygon class="cls-1" points="422.3 624.88 416.69 624.88 419.44 619.26 422.3 624.88"/><polygon class="cls-1" points="444.23 624.88 438.62 624.88 441.38 619.26 444.23 624.88"/><polygon class="cls-1" points="466.16 624.88 460.55 624.88 463.31 619.26 466.16 624.88"/><polygon class="cls-1" points="488.09 624.88 482.49 624.88 485.24 619.26 488.09 624.88"/><polygon class="cls-1" points="510.03 624.88 504.42 624.88 507.17 619.26 510.03 624.88"/><polygon class="cls-1" points="531.96 624.88 526.35 624.88 529.1 619.26 531.96 624.88"/><polygon class="cls-1" points="553.89 624.88 548.28 624.88 551.03 619.26 553.89 624.88"/><polygon class="cls-1" points="575.82 624.88 570.21 624.88 572.97 619.26 575.82 624.88"/><polygon class="cls-1" points="49.46 602.94 43.85 602.94 46.6 597.33 49.46 602.94"/><polygon class="cls-1" points="71.39 602.94 65.78 602.94 68.53 597.33 71.39 602.94"/><polygon class="cls-1" points="93.32 602.94 87.71 602.94 90.47 597.33 93.32 602.94"/><polygon class="cls-1" points="115.25 602.94 109.64 602.94 112.4 597.33 115.25 602.94"/><polygon class="cls-1" points="137.19 602.94 131.58 602.94 134.33 597.33 137.19 602.94"/><polygon class="cls-1" points="159.12 602.94 153.51 602.94 156.26 597.33 159.12 602.94"/><polygon class="cls-1" points="181.05 602.94 175.44 602.94 178.19 597.33 181.05 602.94"/><polygon class="cls-1" points="202.98 602.94 197.37 602.94 200.13 597.33 202.98 602.94"/><polygon class="cls-1" points="224.91 602.94 219.3 602.94 222.06 597.33 224.91 602.94"/><polygon class="cls-1" points="246.84 602.94 241.24 602.94 243.99 597.33 246.84 602.94"/><polygon class="cls-1" points="268.78 602.94 263.17 602.94 265.92 597.33 268.78 602.94"/><polygon class="cls-1" points="290.71 602.94 285.1 602.94 287.85 597.33 290.71 602.94"/><polygon class="cls-1" points="312.64 602.94 307.03 602.94 309.78 597.33 312.64 602.94"/><polygon class="cls-1" points="334.57 602.94 328.96 602.94 331.72 597.33 334.57 602.94"/><polygon class="cls-1" points="356.5 602.94 350.89 602.94 353.65 597.33 356.5 602.94"/><polygon class="cls-1" points="378.44 602.94 372.83 602.94 375.58 597.33 378.44 602.94"/><polygon class="cls-1" points="400.37 602.94 394.76 602.94 397.51 597.33 400.37 602.94"/><polygon class="cls-1" points="422.3 602.94 416.69 602.94 419.44 597.33 422.3 602.94"/><polygon class="cls-1" points="444.23 602.94 438.62 602.94 441.38 597.33 444.23 602.94"/><polygon class="cls-1" points="466.16 602.94 460.55 602.94 463.31 597.33 466.16 602.94"/><polygon class="cls-1" points="488.09 602.94 482.49 602.94 485.24 597.33 488.09 602.94"/><polygon class="cls-1" points="510.03 602.94 504.42 602.94 507.17 597.33 510.03 602.94"/><polygon class="cls-1" points="531.96 602.94 526.35 602.94 529.1 597.33 531.96 602.94"/><polygon class="cls-1" points="553.89 602.94 548.28 602.94 551.03 597.33 553.89 602.94"/><polygon class="cls-1" points="575.82 602.94 570.21 602.94 572.97 597.33 575.82 602.94"/><polygon class="cls-1" points="5.61 645.61 0 645.61 2.75 640 5.61 645.61"/><polygon class="cls-1" points="5.61 667.54 0 667.54 2.75 661.93 5.61 667.54"/><polygon class="cls-1" points="27.53 645.61 21.92 645.61 24.67 640 27.53 645.61"/><polygon class="cls-1" points="27.53 667.54 21.92 667.54 24.67 661.93 27.53 667.54"/><polygon class="cls-1" points="49.46 667.54 43.85 667.54 46.6 661.93 49.46 667.54"/><polygon class="cls-1" points="71.39 667.54 65.78 667.54 68.53 661.93 71.39 667.54"/><polygon class="cls-1" points="93.32 667.54 87.71 667.54 90.47 661.93 93.32 667.54"/><polygon class="cls-1" points="115.25 667.54 109.64 667.54 112.4 661.93 115.25 667.54"/><polygon class="cls-1" points="137.19 667.54 131.58 667.54 134.33 661.93 137.19 667.54"/><polygon class="cls-1" points="159.12 667.54 153.51 667.54 156.26 661.93 159.12 667.54"/><polygon class="cls-1" points="181.05 667.54 175.44 667.54 178.19 661.93 181.05 667.54"/><polygon class="cls-1" points="202.98 667.54 197.37 667.54 200.13 661.93 202.98 667.54"/><polygon class="cls-1" points="224.91 667.54 219.3 667.54 222.06 661.93 224.91 667.54"/><polygon class="cls-1" points="246.84 667.54 241.24 667.54 243.99 661.93 246.84 667.54"/><polygon class="cls-1" points="268.78 667.54 263.17 667.54 265.92 661.93 268.78 667.54"/><polygon class="cls-1" points="290.71 667.54 285.1 667.54 287.85 661.93 290.71 667.54"/><polygon class="cls-1" points="312.64 667.54 307.03 667.54 309.78 661.93 312.64 667.54"/><polygon class="cls-1" points="334.57 667.54 328.96 667.54 331.72 661.93 334.57 667.54"/><polygon class="cls-1" points="356.5 667.54 350.89 667.54 353.65 661.93 356.5 667.54"/><polygon class="cls-1" points="378.44 667.54 372.83 667.54 375.58 661.93 378.44 667.54"/><polygon class="cls-1" points="400.37 667.54 394.76 667.54 397.51 661.93 400.37 667.54"/><polygon class="cls-1" points="422.3 667.54 416.69 667.54 419.44 661.93 422.3 667.54"/><polygon class="cls-1" points="444.23 667.54 438.62 667.54 441.38 661.93 444.23 667.54"/><polygon class="cls-1" points="466.16 667.54 460.55 667.54 463.31 661.93 466.16 667.54"/><polygon class="cls-1" points="488.09 667.54 482.49 667.54 485.24 661.93 488.09 667.54"/><polygon class="cls-1" points="510.03 667.54 504.42 667.54 507.17 661.93 510.03 667.54"/><polygon class="cls-1" points="531.96 667.54 526.35 667.54 529.1 661.93 531.96 667.54"/><polygon class="cls-1" points="553.89 667.54 548.28 667.54 551.03 661.93 553.89 667.54"/><polygon class="cls-1" points="575.82 667.54 570.21 667.54 572.97 661.93 575.82 667.54"/><polygon class="cls-1" points="49.46 645.61 43.85 645.61 46.6 640 49.46 645.61"/><polygon class="cls-1" points="71.39 645.61 65.78 645.61 68.53 640 71.39 645.61"/><polygon class="cls-1" points="93.32 645.61 87.71 645.61 90.47 640 93.32 645.61"/><polygon class="cls-1" points="115.25 645.61 109.64 645.61 112.4 640 115.25 645.61"/><polygon class="cls-1" points="137.19 645.61 131.58 645.61 134.33 640 137.19 645.61"/><polygon class="cls-1" points="159.12 645.61 153.51 645.61 156.26 640 159.12 645.61"/><polygon class="cls-1" points="181.05 645.61 175.44 645.61 178.19 640 181.05 645.61"/><polygon class="cls-1" points="202.98 645.61 197.37 645.61 200.13 640 202.98 645.61"/><polygon class="cls-1" points="224.91 645.61 219.3 645.61 222.06 640 224.91 645.61"/><polygon class="cls-1" points="246.84 645.61 241.24 645.61 243.99 640 246.84 645.61"/><polygon class="cls-1" points="268.78 645.61 263.17 645.61 265.92 640 268.78 645.61"/><polygon class="cls-1" points="290.71 645.61 285.1 645.61 287.85 640 290.71 645.61"/><polygon class="cls-1" points="312.64 645.61 307.03 645.61 309.78 640 312.64 645.61"/><polygon class="cls-1" points="334.57 645.61 328.96 645.61 331.72 640 334.57 645.61"/><polygon class="cls-1" points="356.5 645.61 350.89 645.61 353.65 640 356.5 645.61"/><polygon class="cls-1" points="378.44 645.61 372.83 645.61 375.58 640 378.44 645.61"/><polygon class="cls-1" points="400.37 645.61 394.76 645.61 397.51 640 400.37 645.61"/><polygon class="cls-1" points="422.3 645.61 416.69 645.61 419.44 640 422.3 645.61"/><polygon class="cls-1" points="444.23 645.61 438.62 645.61 441.38 640 444.23 645.61"/><polygon class="cls-1" points="466.16 645.61 460.55 645.61 463.31 640 466.16 645.61"/><polygon class="cls-1" points="488.09 645.61 482.49 645.61 485.24 640 488.09 645.61"/><polygon class="cls-1" points="510.03 645.61 504.42 645.61 507.17 640 510.03 645.61"/><polygon class="cls-1" points="531.96 645.61 526.35 645.61 529.1 640 531.96 645.61"/><polygon class="cls-1" points="553.89 645.61 548.28 645.61 551.03 640 553.89 645.61"/><polygon class="cls-1" points="575.82 645.61 570.21 645.61 572.97 640 575.82 645.61"/><polygon class="cls-1" points="5.61 688.28 0 688.28 2.75 682.67 5.61 688.28"/><polygon class="cls-1" points="5.61 710.21 0 710.21 2.75 704.6 5.61 710.21"/><polygon class="cls-1" points="27.53 688.28 21.92 688.28 24.67 682.67 27.53 688.28"/><polygon class="cls-1" points="27.53 710.21 21.92 710.21 24.67 704.6 27.53 710.21"/><polygon class="cls-1" points="49.46 710.21 43.85 710.21 46.6 704.6 49.46 710.21"/><polygon class="cls-1" points="71.39 710.21 65.78 710.21 68.53 704.6 71.39 710.21"/><polygon class="cls-1" points="93.32 710.21 87.71 710.21 90.47 704.6 93.32 710.21"/><polygon class="cls-1" points="115.25 710.21 109.64 710.21 112.4 704.6 115.25 710.21"/><polygon class="cls-1" points="137.19 710.21 131.58 710.21 134.33 704.6 137.19 710.21"/><polygon class="cls-1" points="159.12 710.21 153.51 710.21 156.26 704.6 159.12 710.21"/><polygon class="cls-1" points="181.05 710.21 175.44 710.21 178.19 704.6 181.05 710.21"/><polygon class="cls-1" points="202.98 710.21 197.37 710.21 200.13 704.6 202.98 710.21"/><polygon class="cls-1" points="224.91 710.21 219.3 710.21 222.06 704.6 224.91 710.21"/><polygon class="cls-1" points="246.84 710.21 241.24 710.21 243.99 704.6 246.84 710.21"/><polygon class="cls-1" points="268.78 710.21 263.17 710.21 265.92 704.6 268.78 710.21"/><polygon class="cls-1" points="290.71 710.21 285.1 710.21 287.85 704.6 290.71 710.21"/><polygon class="cls-1" points="312.64 710.21 307.03 710.21 309.78 704.6 312.64 710.21"/><polygon class="cls-1" points="334.57 710.21 328.96 710.21 331.72 704.6 334.57 710.21"/><polygon class="cls-1" points="356.5 710.21 350.89 710.21 353.65 704.6 356.5 710.21"/><polygon class="cls-1" points="378.44 710.21 372.83 710.21 375.58 704.6 378.44 710.21"/><polygon class="cls-1" points="400.37 710.21 394.76 710.21 397.51 704.6 400.37 710.21"/><polygon class="cls-1" points="422.3 710.21 416.69 710.21 419.44 704.6 422.3 710.21"/><polygon class="cls-1" points="444.23 710.21 438.62 710.21 441.38 704.6 444.23 710.21"/><polygon class="cls-1" points="466.16 710.21 460.55 710.21 463.31 704.6 466.16 710.21"/><polygon class="cls-1" points="488.09 710.21 482.49 710.21 485.24 704.6 488.09 710.21"/><polygon class="cls-1" points="510.03 710.21 504.42 710.21 507.17 704.6 510.03 710.21"/><polygon class="cls-1" points="531.96 710.21 526.35 710.21 529.1 704.6 531.96 710.21"/><polygon class="cls-1" points="553.89 710.21 548.28 710.21 551.03 704.6 553.89 710.21"/><polygon class="cls-1" points="575.82 710.21 570.21 710.21 572.97 704.6 575.82 710.21"/><polygon class="cls-1" points="49.46 688.28 43.85 688.28 46.6 682.67 49.46 688.28"/><polygon class="cls-1" points="71.39 688.28 65.78 688.28 68.53 682.67 71.39 688.28"/><polygon class="cls-1" points="93.32 688.28 87.71 688.28 90.47 682.67 93.32 688.28"/><polygon class="cls-1" points="115.25 688.28 109.64 688.28 112.4 682.67 115.25 688.28"/><polygon class="cls-1" points="137.19 688.28 131.58 688.28 134.33 682.67 137.19 688.28"/><polygon class="cls-1" points="159.12 688.28 153.51 688.28 156.26 682.67 159.12 688.28"/><polygon class="cls-1" points="181.05 688.28 175.44 688.28 178.19 682.67 181.05 688.28"/><polygon class="cls-1" points="202.98 688.28 197.37 688.28 200.13 682.67 202.98 688.28"/><polygon class="cls-1" points="224.91 688.28 219.3 688.28 222.06 682.67 224.91 688.28"/><polygon class="cls-1" points="246.84 688.28 241.24 688.28 243.99 682.67 246.84 688.28"/><polygon class="cls-1" points="268.78 688.28 263.17 688.28 265.92 682.67 268.78 688.28"/><polygon class="cls-1" points="290.71 688.28 285.1 688.28 287.85 682.67 290.71 688.28"/><polygon class="cls-1" points="312.64 688.28 307.03 688.28 309.78 682.67 312.64 688.28"/><polygon class="cls-1" points="334.57 688.28 328.96 688.28 331.72 682.67 334.57 688.28"/><polygon class="cls-1" points="356.5 688.28 350.89 688.28 353.65 682.67 356.5 688.28"/><polygon class="cls-1" points="378.44 688.28 372.83 688.28 375.58 682.67 378.44 688.28"/><polygon class="cls-1" points="400.37 688.28 394.76 688.28 397.51 682.67 400.37 688.28"/><polygon class="cls-1" points="422.3 688.28 416.69 688.28 419.44 682.67 422.3 688.28"/><polygon class="cls-1" points="444.23 688.28 438.62 688.28 441.38 682.67 444.23 688.28"/><polygon class="cls-1" points="466.16 688.28 460.55 688.28 463.31 682.67 466.16 688.28"/><polygon class="cls-1" points="488.09 688.28 482.49 688.28 485.24 682.67 488.09 688.28"/><polygon class="cls-1" points="510.03 688.28 504.42 688.28 507.17 682.67 510.03 688.28"/><polygon class="cls-1" points="531.96 688.28 526.35 688.28 529.1 682.67 531.96 688.28"/><polygon class="cls-1" points="553.89 688.28 548.28 688.28 551.03 682.67 553.89 688.28"/><polygon class="cls-1" points="575.82 688.28 570.21 688.28 572.97 682.67 575.82 688.28"/><polygon class="cls-1" points="5.61 730.94 0 730.94 2.75 725.33 5.61 730.94"/><polygon class="cls-1" points="5.61 752.88 0 752.88 2.75 747.26 5.61 752.88"/><polygon class="cls-1" points="27.53 730.94 21.92 730.94 24.67 725.33 27.53 730.94"/><polygon class="cls-1" points="27.53 752.88 21.92 752.88 24.67 747.26 27.53 752.88"/><polygon class="cls-1" points="49.46 752.88 43.85 752.88 46.6 747.26 49.46 752.88"/><polygon class="cls-1" points="71.39 752.88 65.78 752.88 68.53 747.26 71.39 752.88"/><polygon class="cls-1" points="93.32 752.88 87.71 752.88 90.47 747.26 93.32 752.88"/><polygon class="cls-1" points="115.25 752.88 109.64 752.88 112.4 747.26 115.25 752.88"/><polygon class="cls-1" points="137.19 752.88 131.58 752.88 134.33 747.26 137.19 752.88"/><polygon class="cls-1" points="159.12 752.88 153.51 752.88 156.26 747.26 159.12 752.88"/><polygon class="cls-1" points="181.05 752.88 175.44 752.88 178.19 747.26 181.05 752.88"/><polygon class="cls-1" points="202.98 752.88 197.37 752.88 200.13 747.26 202.98 752.88"/><polygon class="cls-1" points="224.91 752.88 219.3 752.88 222.06 747.26 224.91 752.88"/><polygon class="cls-1" points="246.84 752.88 241.24 752.88 243.99 747.26 246.84 752.88"/><polygon class="cls-1" points="268.78 752.88 263.17 752.88 265.92 747.26 268.78 752.88"/><polygon class="cls-1" points="290.71 752.88 285.1 752.88 287.85 747.26 290.71 752.88"/><polygon class="cls-1" points="312.64 752.88 307.03 752.88 309.78 747.26 312.64 752.88"/><polygon class="cls-1" points="334.57 752.88 328.96 752.88 331.72 747.26 334.57 752.88"/><polygon class="cls-1" points="356.5 752.88 350.89 752.88 353.65 747.26 356.5 752.88"/><polygon class="cls-1" points="378.44 752.88 372.83 752.88 375.58 747.26 378.44 752.88"/><polygon class="cls-1" points="400.37 752.88 394.76 752.88 397.51 747.26 400.37 752.88"/><polygon class="cls-1" points="422.3 752.88 416.69 752.88 419.44 747.26 422.3 752.88"/><polygon class="cls-1" points="444.23 752.88 438.62 752.88 441.38 747.26 444.23 752.88"/><polygon class="cls-1" points="466.16 752.88 460.55 752.88 463.31 747.26 466.16 752.88"/><polygon class="cls-1" points="488.09 752.88 482.49 752.88 485.24 747.26 488.09 752.88"/><polygon class="cls-1" points="510.03 752.88 504.42 752.88 507.17 747.26 510.03 752.88"/><polygon class="cls-1" points="531.96 752.88 526.35 752.88 529.1 747.26 531.96 752.88"/><polygon class="cls-1" points="553.89 752.88 548.28 752.88 551.03 747.26 553.89 752.88"/><polygon class="cls-1" points="575.82 752.88 570.21 752.88 572.97 747.26 575.82 752.88"/><polygon class="cls-1" points="49.46 730.94 43.85 730.94 46.6 725.33 49.46 730.94"/><polygon class="cls-1" points="71.39 730.94 65.78 730.94 68.53 725.33 71.39 730.94"/><polygon class="cls-1" points="93.32 730.94 87.71 730.94 90.47 725.33 93.32 730.94"/><polygon class="cls-1" points="115.25 730.94 109.64 730.94 112.4 725.33 115.25 730.94"/><polygon class="cls-1" points="137.19 730.94 131.58 730.94 134.33 725.33 137.19 730.94"/><polygon class="cls-1" points="159.12 730.94 153.51 730.94 156.26 725.33 159.12 730.94"/><polygon class="cls-1" points="181.05 730.94 175.44 730.94 178.19 725.33 181.05 730.94"/><polygon class="cls-1" points="202.98 730.94 197.37 730.94 200.13 725.33 202.98 730.94"/><polygon class="cls-1" points="224.91 730.94 219.3 730.94 222.06 725.33 224.91 730.94"/><polygon class="cls-1" points="246.84 730.94 241.24 730.94 243.99 725.33 246.84 730.94"/><polygon class="cls-1" points="268.78 730.94 263.17 730.94 265.92 725.33 268.78 730.94"/><polygon class="cls-1" points="290.71 730.94 285.1 730.94 287.85 725.33 290.71 730.94"/><polygon class="cls-1" points="312.64 730.94 307.03 730.94 309.78 725.33 312.64 730.94"/><polygon class="cls-1" points="334.57 730.94 328.96 730.94 331.72 725.33 334.57 730.94"/><polygon class="cls-1" points="356.5 730.94 350.89 730.94 353.65 725.33 356.5 730.94"/><polygon class="cls-1" points="378.44 730.94 372.83 730.94 375.58 725.33 378.44 730.94"/><polygon class="cls-1" points="400.37 730.94 394.76 730.94 397.51 725.33 400.37 730.94"/><polygon class="cls-1" points="422.3 730.94 416.69 730.94 419.44 725.33 422.3 730.94"/><polygon class="cls-1" points="444.23 730.94 438.62 730.94 441.38 725.33 444.23 730.94"/><polygon class="cls-1" points="466.16 730.94 460.55 730.94 463.31 725.33 466.16 730.94"/><polygon class="cls-1" points="488.09 730.94 482.49 730.94 485.24 725.33 488.09 730.94"/><polygon class="cls-1" points="510.03 730.94 504.42 730.94 507.17 725.33 510.03 730.94"/><polygon class="cls-1" points="531.96 730.94 526.35 730.94 529.1 725.33 531.96 730.94"/><polygon class="cls-1" points="553.89 730.94 548.28 730.94 551.03 725.33 553.89 730.94"/><polygon class="cls-1" points="575.82 730.94 570.21 730.94 572.97 725.33 575.82 730.94"/><polygon class="cls-1" points="5.61 773.61 0 773.61 2.75 768 5.61 773.61"/><polygon class="cls-1" points="5.61 795.54 0 795.54 2.75 789.93 5.61 795.54"/><polygon class="cls-1" points="27.53 773.61 21.92 773.61 24.67 768 27.53 773.61"/><polygon class="cls-1" points="27.53 795.54 21.92 795.54 24.67 789.93 27.53 795.54"/><polygon class="cls-1" points="49.46 795.54 43.85 795.54 46.6 789.93 49.46 795.54"/><polygon class="cls-1" points="71.39 795.54 65.78 795.54 68.53 789.93 71.39 795.54"/><polygon class="cls-1" points="93.32 795.54 87.71 795.54 90.47 789.93 93.32 795.54"/><polygon class="cls-1" points="115.25 795.54 109.64 795.54 112.4 789.93 115.25 795.54"/><polygon class="cls-1" points="137.19 795.54 131.58 795.54 134.33 789.93 137.19 795.54"/><polygon class="cls-1" points="159.12 795.54 153.51 795.54 156.26 789.93 159.12 795.54"/><polygon class="cls-1" points="181.05 795.54 175.44 795.54 178.19 789.93 181.05 795.54"/><polygon class="cls-1" points="202.98 795.54 197.37 795.54 200.13 789.93 202.98 795.54"/><polygon class="cls-1" points="224.91 795.54 219.3 795.54 222.06 789.93 224.91 795.54"/><polygon class="cls-1" points="246.84 795.54 241.24 795.54 243.99 789.93 246.84 795.54"/><polygon class="cls-1" points="268.78 795.54 263.17 795.54 265.92 789.93 268.78 795.54"/><polygon class="cls-1" points="290.71 795.54 285.1 795.54 287.85 789.93 290.71 795.54"/><polygon class="cls-1" points="312.64 795.54 307.03 795.54 309.78 789.93 312.64 795.54"/><polygon class="cls-1" points="334.57 795.54 328.96 795.54 331.72 789.93 334.57 795.54"/><polygon class="cls-1" points="356.5 795.54 350.89 795.54 353.65 789.93 356.5 795.54"/><polygon class="cls-1" points="378.44 795.54 372.83 795.54 375.58 789.93 378.44 795.54"/><polygon class="cls-1" points="400.37 795.54 394.76 795.54 397.51 789.93 400.37 795.54"/><polygon class="cls-1" points="422.3 795.54 416.69 795.54 419.44 789.93 422.3 795.54"/><polygon class="cls-1" points="444.23 795.54 438.62 795.54 441.38 789.93 444.23 795.54"/><polygon class="cls-1" points="466.16 795.54 460.55 795.54 463.31 789.93 466.16 795.54"/><polygon class="cls-1" points="488.09 795.54 482.49 795.54 485.24 789.93 488.09 795.54"/><polygon class="cls-1" points="510.03 795.54 504.42 795.54 507.17 789.93 510.03 795.54"/><polygon class="cls-1" points="531.96 795.54 526.35 795.54 529.1 789.93 531.96 795.54"/><polygon class="cls-1" points="553.89 795.54 548.28 795.54 551.03 789.93 553.89 795.54"/><polygon class="cls-1" points="575.82 795.54 570.21 795.54 572.97 789.93 575.82 795.54"/><polygon class="cls-1" points="49.46 773.61 43.85 773.61 46.6 768 49.46 773.61"/><polygon class="cls-1" points="71.39 773.61 65.78 773.61 68.53 768 71.39 773.61"/><polygon class="cls-1" points="93.32 773.61 87.71 773.61 90.47 768 93.32 773.61"/><polygon class="cls-1" points="115.25 773.61 109.64 773.61 112.4 768 115.25 773.61"/><polygon class="cls-1" points="137.19 773.61 131.58 773.61 134.33 768 137.19 773.61"/><polygon class="cls-1" points="159.12 773.61 153.51 773.61 156.26 768 159.12 773.61"/><polygon class="cls-1" points="181.05 773.61 175.44 773.61 178.19 768 181.05 773.61"/><polygon class="cls-1" points="202.98 773.61 197.37 773.61 200.13 768 202.98 773.61"/><polygon class="cls-1" points="224.91 773.61 219.3 773.61 222.06 768 224.91 773.61"/><polygon class="cls-1" points="246.84 773.61 241.24 773.61 243.99 768 246.84 773.61"/><polygon class="cls-1" points="268.78 773.61 263.17 773.61 265.92 768 268.78 773.61"/><polygon class="cls-1" points="290.71 773.61 285.1 773.61 287.85 768 290.71 773.61"/><polygon class="cls-1" points="312.64 773.61 307.03 773.61 309.78 768 312.64 773.61"/><polygon class="cls-1" points="334.57 773.61 328.96 773.61 331.72 768 334.57 773.61"/><polygon class="cls-1" points="356.5 773.61 350.89 773.61 353.65 768 356.5 773.61"/><polygon class="cls-1" points="378.44 773.61 372.83 773.61 375.58 768 378.44 773.61"/><polygon class="cls-1" points="400.37 773.61 394.76 773.61 397.51 768 400.37 773.61"/><polygon class="cls-1" points="422.3 773.61 416.69 773.61 419.44 768 422.3 773.61"/><polygon class="cls-1" points="444.23 773.61 438.62 773.61 441.38 768 444.23 773.61"/><polygon class="cls-1" points="466.16 773.61 460.55 773.61 463.31 768 466.16 773.61"/><polygon class="cls-1" points="488.09 773.61 482.49 773.61 485.24 768 488.09 773.61"/><polygon class="cls-1" points="510.03 773.61 504.42 773.61 507.17 768 510.03 773.61"/><polygon class="cls-1" points="531.96 773.61 526.35 773.61 529.1 768 531.96 773.61"/><polygon class="cls-1" points="553.89 773.61 548.28 773.61 551.03 768 553.89 773.61"/><polygon class="cls-1" points="575.82 773.61 570.21 773.61 572.97 768 575.82 773.61"/><polygon class="cls-1" points="5.61 816.28 0 816.28 2.75 810.67 5.61 816.28"/><polygon class="cls-1" points="27.53 816.28 21.92 816.28 24.67 810.67 27.53 816.28"/><polygon class="cls-1" points="49.46 816.28 43.85 816.28 46.6 810.67 49.46 816.28"/><polygon class="cls-1" points="71.39 816.28 65.78 816.28 68.53 810.67 71.39 816.28"/><polygon class="cls-1" points="93.32 816.28 87.71 816.28 90.47 810.67 93.32 816.28"/><polygon class="cls-1" points="115.25 816.28 109.64 816.28 112.4 810.67 115.25 816.28"/><polygon class="cls-1" points="137.19 816.28 131.58 816.28 134.33 810.67 137.19 816.28"/><polygon class="cls-1" points="159.12 816.28 153.51 816.28 156.26 810.67 159.12 816.28"/><polygon class="cls-1" points="181.05 816.28 175.44 816.28 178.19 810.67 181.05 816.28"/><polygon class="cls-1" points="202.98 816.28 197.37 816.28 200.13 810.67 202.98 816.28"/><polygon class="cls-1" points="224.91 816.28 219.3 816.28 222.06 810.67 224.91 816.28"/><polygon class="cls-1" points="246.84 816.28 241.24 816.28 243.99 810.67 246.84 816.28"/><polygon class="cls-1" points="268.78 816.28 263.17 816.28 265.92 810.67 268.78 816.28"/><polygon class="cls-1" points="290.71 816.28 285.1 816.28 287.85 810.67 290.71 816.28"/><polygon class="cls-1" points="312.64 816.28 307.03 816.28 309.78 810.67 312.64 816.28"/><polygon class="cls-1" points="334.57 816.28 328.96 816.28 331.72 810.67 334.57 816.28"/><polygon class="cls-1" points="356.5 816.28 350.89 816.28 353.65 810.67 356.5 816.28"/><polygon class="cls-1" points="378.44 816.28 372.83 816.28 375.58 810.67 378.44 816.28"/><polygon class="cls-1" points="400.37 816.28 394.76 816.28 397.51 810.67 400.37 816.28"/><polygon class="cls-1" points="422.3 816.28 416.69 816.28 419.44 810.67 422.3 816.28"/><polygon class="cls-1" points="444.23 816.28 438.62 816.28 441.38 810.67 444.23 816.28"/><polygon class="cls-1" points="466.16 816.28 460.55 816.28 463.31 810.67 466.16 816.28"/><polygon class="cls-1" points="488.09 816.28 482.49 816.28 485.24 810.67 488.09 816.28"/><polygon class="cls-1" points="510.03 816.28 504.42 816.28 507.17 810.67 510.03 816.28"/><polygon class="cls-1" points="531.96 816.28 526.35 816.28 529.1 810.67 531.96 816.28"/><polygon class="cls-1" points="553.89 816.28 548.28 816.28 551.03 810.67 553.89 816.28"/><polygon class="cls-1" points="575.82 816.28 570.21 816.28 572.97 810.67 575.82 816.28"/></g></g></svg>