<svg xmlns="http://www.w3.org/2000/svg" width="1864" height="216">
    <path fill="#707171" fill-rule="evenodd" d="M801.002 216l12.498-29.01L825.999 216h-24.997zm-6.502-80.004L798.999 146h-8.998l4.499-10.004zm-14-82.002L788.999 73h-16.998l8.499-19.006zM783.999 139h-19.998L774 116.993 783.999 139zM754.5 34.997L758.999 45H750l4.5-10.003zm-36 135.998l7.499 17.006h-14.998l7.499-17.006zm-40-93L685 92h-13l6.5-14.005zM648 179.988L663.999 216h-31.997L648 179.988zm-14.501-59.993l7.5 17.005h-14.998l7.498-17.005zM595-.007L603.999 20h-17.998L595-.007zm-2 93.008h-9l4.499-10.004L593 93.001zm-55.5 29.991L549.999 150h-24.997l12.498-27.008zm-36-88.995l4.5 10.004h-9l4.5-10.004zM484 64.995L491 80h-14l7-15.005zm-24.999 118.006L475 146.988l15.999 36.013h-31.998zM431 88.996L436.999 102h-11.998L431 88.996zM409.001 185l9.499-20.006L427.999 185h-18.998zM400.5 65.995L407.999 82H393l7.5-16.005zm-51.501-35.998L353 39.001h-8l3.999-9.004zm-12.998 126.002l7.499-16.005 7.499 16.005h-14.998zm-5.501-46.004L337.999 126H323l7.5-16.005zM308 49.997L312 59h-7.999L308 49.997zm-22.5 83.995L294.999 155h-18.998l9.499-21.008zm-38-84L258.999 75h-22.998L247.5 49.992zM252.999 122h-7.998l3.999-9.004 3.999 9.004zm4.999 61.001h-31.997l15.998-36.013 15.999 36.013zM196 151.994l8 18.005h-15.999L196 151.994zm-3-106.996L196.999 54H189l4-9.002zm-30 146.997L168.999 206h-11.998L163 191.995zm.5-183.998L166.999 16h-6.998l3.499-8.003zm-19.999 131.997l7.498 17.005h-14.998l7.5-17.005zm-4-53.996L143 94.001h-7l3.501-8.003zM91 179.988L106.998 216H75.002L91 179.988zm-24.5-69.993L73 124H60l6.5-14.005zm-58 78.999L15.999 206H1.001L8.5 188.994zm-4.499-58.996L8 139H0l4.001-9.002zM330.998 216h-39.996L311 173.017 330.998 216zM1845 86.988L1860.998 123h-31.997L1845 86.988zm-56.5 78.006l9.499 20.006h-18.998l9.499-20.006zm-11-142.003l12.499 27.008h-24.998l12.499-27.008zm-36 111.003l8.499 19.006h-16.998l8.499-19.006zm-26.001-18.998L1720 125h-9l4.499-10.004zM1682.5 186.99l12.498 29.01h-24.996l12.498-29.01zm-19-50.994L1668 146h-9l4.5-10.004zm-14-82.002L1657.999 73h-16.998l8.499-19.006zm3.499 85.006h-19.998l9.999-22.007 9.999 22.007zM1623.5 34.997L1627.999 45H1619l4.5-10.003zm-36 135.998l7.499 17.006H1580l7.5-17.006zm-40-93L1553.999 92h-12.998l6.499-14.005zM1517 179.988L1532.999 216h-31.998L1517 179.988zm-14.501-59.993l7.5 17.005h-14.998l7.498-17.005zM1464-.007L1472.999 20h-17.998L1464-.007zm-2 93.008h-8.999l4.499-10.004 4.5 10.004zm-55.499 29.991L1418.999 150h-24.998l12.5-27.008zM1370.5 33.997l4.5 10.004h-8.999l4.499-10.004zM1353 64.995L1359.999 80h-13.998L1353 64.995zm-24.999 118.006L1344 146.988l15.998 36.013h-31.997zM1300 88.996l5.999 13.004H1294l6-13.004zM1278.001 185l9.499-20.006 9.499 20.006h-18.998zM1269.5 65.995L1276.999 82h-14.998l7.499-16.005zM1218 29.997l4 9.004h-8l4-9.004zm-12.999 126.002l7.499-16.005 7.5 16.005h-14.999zm-5.501-46.004l7.499 16.005h-14.998l7.499-16.005zm-22.499-59.998L1181 59h-8l4.001-9.003zm-22.501 83.995l9.499 21.008h-18.997l9.498-21.008zm-38-84L1127.999 75h-22.998l11.499-25.008zM1122 122h-8l4-9.004 4 9.004zm4.999 61.001h-31.998L1111 146.988l15.999 36.013zM1065 151.994l7.998 18.005h-15.997l7.999-18.005zm-3-106.996l4 9.002h-7.999l3.999-9.002zm-30 146.997l5.999 14.005h-11.998l5.999-14.005zm.5-183.998L1036 16h-6.999l3.499-8.003zm-20 131.997l7.499 17.005h-14.998l7.499-17.005zm-4-53.996l3.5 8.003h-7l3.5-8.003zm-48.5 93.99L975.999 216h-31.998L960 179.988zm-24.5-69.993L942 124h-12.999l6.499-14.005zm-57.999 78.999L884.999 206H870l7.501-17.006zM873 129.998l4 9.002h-8l4-9.002zM1199.998 216h-39.996L1180 173.017 1199.998 216zm664.001 0h-31.998L1848 179.988 1863.999 216z" opacity=".2"/>
</svg>
