<svg xmlns="http://www.w3.org/2000/svg" xmlns:xlink="http://www.w3.org/1999/xlink" viewBox="0 0 202.55 161.09"><defs><style>.cls-1{isolation:isolate;}.cls-2{mix-blend-mode:hard-light;}.cls-3{fill:url(#linear-gradient);}.cls-4{fill:url(#linear-gradient-2);}</style><linearGradient id="linear-gradient" x1="25.37" y1="101.28" x2="189.39" y2="101.28" gradientUnits="userSpaceOnUse"><stop offset="0" stop-color="#56308d"/><stop offset="0.62" stop-color="#8dc7be"/><stop offset="0.74" stop-color="#8dc7be"/><stop offset="1" stop-color="#8dc7be"/></linearGradient><linearGradient id="linear-gradient-2" x1="0" y1="75.85" x2="202.55" y2="75.85" xlink:href="#linear-gradient"/></defs><title>Ресурс 2</title><g class="cls-1"><g id="Слой_2" data-name="Слой 2"><g id="Layer_1" data-name="Layer 1"><g class="cls-2"><path class="cls-3" d="M189.39,161.09h-164L88.76,52.61A20.93,20.93,0,0,1,107,41.46c7.81-.1,14.54,3.92,18.51,11.14Zm-157-4h150L122,54.58c-3.21-5.83-8.53-9.12-14.65-9.12H107a16.9,16.9,0,0,0-14.74,9l-.06.11Z"/></g><g class="cls-2"><path class="cls-4" d="M202.55,151.7H0L79.76,14.79C83.41,7.54,91.39.17,101,0c5.74-.07,14,2.42,20.82,15ZM7,147.69H195.54L118.38,17C113.69,8.35,107.75,3.9,101.11,4c-8,.14-14.81,6.65-17.8,12.64l-.06.11Z"/></g></g></g></g></svg>