<svg xmlns="http://www.w3.org/2000/svg" xmlns:xlink="http://www.w3.org/1999/xlink" viewBox="0 0 244.92 132.88"><defs><style>.cls-1{isolation:isolate;}.cls-2,.cls-3{mix-blend-mode:hard-light;}.cls-2{fill:url(#linear-gradient);}.cls-3{fill:url(#linear-gradient-2);}</style><linearGradient id="linear-gradient" x1="122.46" y1="132.88" x2="122.46" gradientUnits="userSpaceOnUse"><stop offset="0" stop-color="#56308d"/><stop offset="0.62" stop-color="#8dc7be"/><stop offset="0.74" stop-color="#8dc7be"/><stop offset="1" stop-color="#8dc7be"/></linearGradient><linearGradient id="linear-gradient-2" x1="103.63" y1="103.57" x2="103.63" y2="8.53" xlink:href="#linear-gradient"/></defs><title>Ресурс 3</title><g class="cls-1"><g id="Слой_2" data-name="Слой 2"><g id="Layer_1" data-name="Layer 1"><path class="cls-2" d="M244.46,96.48,192.59,8.43c-6.81-12.37-22.64-10-27.7,0L113.44,96.48c-9.88,16.21-21,17.26-32.14,0L59.9,59.09c-4.13-7.11-10.38-6.65-14.06,0L24.45,96.49c-14.88,27.7-30.3,14.37-22.23,0l35.52-60.8c4-7.51,11.52-7.64,16.43,0l53.51,90.89c5.07,8,12.39,8.78,17.38,0l55.83-94.76c3.74-7.54,11.34-8.87,17,0l37.9,64.66C240.62,105.9,246.63,101.19,244.46,96.48Z"/><path class="cls-3" d="M165.36,96.48,119.81,18.84c-8.1-14.95-26.12-12.49-32.7,0L41.75,96.47c-8.39,16.22,24-.5,61.81,0C138,96.94,174.76,111.91,165.36,96.48Z"/></g></g></g></svg>